<svg width="675" height="464" viewBox="0 0 675 464" fill="none" xmlns="http://www.w3.org/2000/svg">
<path opacity="0.1" d="M284.275 180.321L209.938 137.467C204.69 134.26 205.273 129.013 211.395 125.515L250.459 103.068C256.581 99.5696 265.91 99.278 271.157 102.193L345.495 145.047C350.742 148.253 350.159 153.501 344.037 156.999L304.973 179.446C298.851 182.944 289.523 183.236 284.275 180.321Z" fill="#263960"/>
<path opacity="0.1" d="M187.782 97.8213C172.915 97.8213 160.671 104.526 160.671 112.98C160.671 121.434 172.915 128.139 187.782 128.139C202.65 128.139 214.894 121.434 214.894 112.98C214.894 104.818 202.941 97.8213 187.782 97.8213Z" fill="#263960"/>
<path opacity="0.1" d="M231.802 78.5806C216.935 78.5806 204.691 85.2855 204.691 93.7396C204.691 102.194 216.935 108.899 231.802 108.899C246.67 108.899 258.914 102.194 258.914 93.7396C258.914 85.2855 246.961 78.5806 231.802 78.5806Z" fill="#263960"/>
<path opacity="0.1" d="M236.048 293.563L135.765 235.259L142.179 231.469C144.511 230.011 144.22 227.679 141.596 225.93C138.681 224.181 134.599 224.181 132.267 225.639L30.2351 284.526C27.9029 285.983 28.1945 288.315 30.8182 290.065C33.7334 291.814 37.8146 291.814 40.1468 290.356L43.062 288.607L143.053 346.911L236.048 293.563Z" fill="#263960"/>
<path opacity="0.1" d="M457.947 320.436L559.979 379.323L661.72 320.436L559.979 261.549L457.947 320.436Z" fill="#263960"/>
<path opacity="0.1" d="M339.589 251.346L441.33 310.233L543.362 251.346L441.622 192.459L339.589 251.346Z" fill="#263960"/>
<path opacity="0.1" d="M521.738 375.315L371.627 461.999C367.701 464.415 360.452 464.113 355.921 461.395L241.148 395.249C236.618 392.531 236.014 388.605 239.94 386.188L390.051 299.505C393.978 297.088 401.227 297.39 405.757 300.109L520.53 366.254C525.061 368.972 525.665 372.899 521.738 375.315Z" fill="#263960"/>
<path d="M122.592 226.857L44.7562 271.752C37.1767 276.124 27.8481 273.209 27.8481 263.006V91.592C27.8481 81.3888 33.97 69.4365 41.841 65.0637L119.968 19.878C127.548 15.5052 136.585 20.1696 136.585 30.0812V200.038C136.294 210.532 130.172 222.485 122.592 226.857Z" fill="#1B2630"/>
<path d="M137.752 23.9597L130.755 19.8784L127.257 21.336L136.294 26.8749L137.752 23.9597Z" fill="#1B2630"/>
<path d="M39.217 276.124L32.2205 272.334L31.929 265.629L44.7558 271.751L39.217 276.124Z" fill="#1B2630"/>
<path d="M129.297 230.647L51.4614 275.541C43.8819 279.914 34.5532 276.998 34.5532 266.795V95.3814C34.5532 85.1781 40.6752 73.2258 48.5462 68.853L126.674 23.6673C134.253 19.2945 143.29 23.9589 143.29 33.8706V203.827C142.999 214.322 136.877 226.274 129.297 230.647Z" fill="#2A3742"/>
<path d="M126.674 228.899L50.5869 272.627C43.0074 277 36.8855 273.21 36.8855 263.007V96.8403C36.8855 86.6371 43.0074 74.9762 50.5869 70.6034L126.674 26.8754C134.253 22.5026 140.375 27.1669 140.375 37.3701V203.537C140.375 213.448 134.253 224.526 126.674 228.899Z" fill="#3C4D56"/>
<path d="M135.128 209.658L42.4243 263.297V90.1344L135.128 36.7861V209.658Z" fill="white"/>
<path d="M135.128 63.8975L42.4243 117.537V90.1343L135.128 36.7861V63.8975Z" fill="#FF514D"/>
<path d="M83.8199 58.6499C83.8199 59.816 82.9453 61.2736 82.0707 61.8567C81.1962 62.4397 80.3216 61.8566 80.3216 60.6906C80.3216 59.5245 81.1962 58.0669 82.0707 57.4839C82.9453 56.9008 83.8199 57.4838 83.8199 58.6499Z" fill="white"/>
<path d="M100.728 51.0715L89.3587 57.485C88.4841 58.068 87.6096 57.485 87.6096 56.3189C87.6096 55.1528 88.4841 53.6952 89.3587 53.1122L100.728 46.6987C101.603 46.1157 102.477 46.6987 102.477 47.8648C102.477 49.0309 101.603 50.4885 100.728 51.0715Z" fill="white"/>
<path d="M99.854 234.438L88.1932 241.143C87.3187 241.726 86.4441 243.184 86.4441 244.641C86.4441 246.099 87.3187 246.682 88.1932 246.099L99.854 239.394C100.729 238.811 101.603 237.353 101.603 235.896C101.603 234.438 101.02 233.855 99.854 234.438Z" fill="white"/>
<path d="M59.0416 87.5112L61.6653 86.0536C64.5805 84.3045 66.3296 85.1791 66.3296 89.5519C66.3296 93.9247 64.5805 97.1314 61.6653 98.589L58.7501 100.338V87.5112H59.0416ZM61.6653 96.5483C63.1229 95.6738 64.2889 93.9247 64.2889 91.0095C64.2889 88.0943 63.1229 87.8027 61.6653 88.6773L61.3737 88.9688V97.1314L61.6653 96.5483Z" fill="white"/>
<path d="M68.3703 82.2627L74.2007 78.7644V81.0966L70.4109 83.4287V86.0524L73.6177 84.3033V86.6355L70.4109 88.3846V91.2998L74.4922 88.9676V91.2998L68.3703 94.798V82.2627Z" fill="white"/>
<path d="M76.2411 77.5989L78.2818 76.4329V86.6361L82.0716 84.5954V86.9276L76.2411 90.4258V77.5989Z" fill="white"/>
<path d="M83.821 73.2264L85.8616 72.0603V84.5956L83.821 85.7617V73.2264Z" fill="white"/>
<path d="M87.0273 71.4768L89.3595 70.0192L90.5256 75.2666C90.8171 76.4327 91.1086 77.5987 91.4001 78.7648C91.6917 77.3072 91.9832 75.8496 92.2747 74.392L93.4408 67.9786L95.773 66.8125L92.8577 81.097L90.2341 82.5546L87.0273 71.4768Z" fill="white"/>
<path d="M96.3557 66.2292L102.186 62.731V65.0631L98.3964 67.3953V70.019L101.603 68.2699V70.602L98.3964 72.3511V75.2663L102.478 72.9342V75.2663L96.3557 78.7646V66.2292Z" fill="white"/>
<path d="M109.475 71.1857L107.725 67.6875L106.559 68.2705V72.9348L104.519 74.1009V61.5655L108.017 59.5249C110.058 58.3588 111.807 58.3588 111.807 61.274C111.807 63.0231 111.224 64.7723 110.058 65.9383L112.098 69.7281L109.475 71.1857ZM106.559 66.2299L107.725 65.6468C108.891 65.0638 109.475 63.8977 109.475 62.7316C109.475 61.5655 108.891 61.274 107.725 62.1486L106.559 62.7316V66.2299Z" fill="white"/>
<path d="M114.722 63.8976L111.807 57.4842L114.139 56.0266L115.013 58.3587C115.305 59.2333 115.596 59.8163 115.888 60.6909C116.179 59.5248 116.471 58.6502 116.762 57.4842L117.637 53.9859L119.969 52.8198L117.054 62.7315V67.1043L115.013 68.2704V63.8976H114.722Z" fill="white"/>
<path d="M238.618 270.003L145.914 323.351L42.4246 263.006L135.128 209.658L238.618 270.003Z" fill="#61E2C0"/>
<path d="M42.4244 263.006V267.962L145.914 328.307V323.351L42.4244 263.006Z" fill="#3FAF94"/>
<path d="M238.617 270.004V274.668L145.914 328.308V323.352L238.617 270.004Z" fill="#4DC5AC"/>
<path d="M122.009 222.193L65.1627 254.844V116.954L122.009 84.0127V222.193Z" fill="#C1AEB6"/>
<path d="M118.219 221.318L68.3695 250.179V119.578L118.219 90.4255V221.318Z" fill="#EADCE1"/>
<path d="M115.013 218.694L96.6468 229.48V165.346L115.013 154.56V218.694Z" fill="#C1AEB6"/>
<path d="M90.8167 232.688L72.1594 243.766V179.632L90.8167 168.554V232.688Z" fill="#C1AEB6"/>
<path d="M115.013 150.187L96.6468 160.974V108.5L115.013 97.7136V150.187Z" fill="#C1AEB6"/>
<path d="M90.8167 164.181L72.1594 174.967V122.494L90.8167 111.707V164.181Z" fill="#C1AEB6"/>
<path d="M65.1628 254.843L61.6646 252.802V114.913L65.1628 116.954V254.843Z" fill="#9B8790"/>
<path d="M122.01 84.0118L65.1635 116.954L61.6652 114.913L118.512 81.9712L122.01 84.0118Z" fill="#EADCE1"/>
<path d="M77.1153 180.505C78.2814 182.254 77.6983 184.586 75.9492 186.044C74.2001 187.21 71.8679 186.627 70.4103 184.878C69.2442 183.129 69.8273 180.797 71.5764 179.339C73.617 178.173 75.9492 178.756 77.1153 180.505Z" fill="white"/>
<path d="M157.283 186.92C159.615 186.337 161.947 186.337 161.947 186.337C161.947 186.337 161.656 186.046 161.364 184.296C161.073 182.547 161.364 181.673 161.947 182.839C162.53 184.005 163.405 186.046 166.903 187.795C170.401 189.252 180.313 183.422 180.313 183.422L180.896 184.296C181.77 191.584 176.232 191.001 176.232 191.001C176.232 191.001 170.984 192.459 167.486 192.167C163.696 191.876 160.49 191.584 158.157 191.001C153.202 190.127 154.951 187.212 157.283 186.92Z" fill="#FFAD97"/>
<path d="M129.88 255.136C129.88 255.136 131.629 256.885 133.961 259.217C136.002 261.258 136.585 261.841 138.625 263.881C139.791 265.047 138.917 265.922 136.585 265.922C134.544 265.922 130.463 265.047 127.839 264.173C126.09 263.59 122.883 261.841 121.426 260.675C119.676 259.8 119.385 258.342 119.385 258.342V254.844L129.88 255.136Z" fill="#3C4D56"/>
<path d="M98.6876 251.929C98.6876 251.929 99.8537 253.387 102.186 255.719C104.226 257.759 104.81 258.634 106.85 260.966C107.142 261.549 107.433 263.007 105.393 263.007C103.352 263.007 100.437 262.132 98.1046 261.258C95.4809 260.383 93.1487 257.468 91.3996 256.593C89.6505 255.719 89.0674 253.387 89.0674 253.387L90.2336 249.888L98.6876 251.929Z" fill="#3C4D56"/>
<path d="M99.5619 196.541C98.6873 184.006 105.684 177.301 105.684 177.301C105.101 172.928 124.633 179.05 124.633 179.05C124.633 179.05 128.714 201.788 130.463 213.741C132.504 227.442 131.338 255.136 131.338 255.136C131.338 255.136 131.046 258.052 126.09 258.052C122.3 258.052 119.385 254.553 119.385 254.553L119.094 223.069L114.721 200.622C114.721 200.622 110.348 218.696 108.891 225.401C107.433 232.398 101.894 252.804 101.894 252.804C101.894 252.804 98.3958 256.886 93.7315 254.845C89.3587 252.513 90.2333 250.181 90.2333 250.181C90.2333 250.181 91.1078 235.605 96.9382 222.486C97.2298 212.574 99.8534 202.371 99.5619 196.541Z" fill="#2A3742"/>
<path d="M122.009 146.106C122.009 146.106 124.925 146.106 127.84 151.354C130.755 156.892 133.379 162.723 133.379 162.723C133.379 162.723 129.297 163.306 124.633 167.679C118.22 161.848 117.345 148.73 122.009 146.106Z" fill="#ED3A3A"/>
<path d="M122.009 146.107C122.009 146.107 123.467 149.022 124.924 154.561C126.382 160.1 125.799 186.045 125.799 186.045C125.799 186.045 119.677 190.418 109.765 189.544C103.935 188.961 100.728 185.462 100.728 185.462C100.728 185.462 97.2297 160.1 97.5212 156.602C98.1043 153.104 105.684 144.358 105.684 144.358C105.684 144.358 116.179 143.775 122.009 146.107Z" fill="#FF514D"/>
<path d="M115.304 142.609L116.47 149.314C116.47 149.314 112.972 153.104 109.765 150.189C106.267 147.273 105.976 145.816 105.976 145.816L107.725 136.487L115.304 142.609Z" fill="#FFAD97"/>
<path d="M113.847 161.848C113.847 161.848 109.474 155.143 105.975 153.394C102.477 151.644 100.728 151.353 100.728 151.353C100.728 151.353 101.894 148.729 102.769 148.438C104.226 148.729 105.101 149.021 108.308 150.77C111.514 152.519 114.721 156.309 116.179 158.641C118.802 163.305 115.596 164.471 113.847 161.848Z" fill="#2A3742"/>
<path d="M120.844 145.523C120.844 145.523 123.759 152.228 124.05 155.435C124.342 158.641 123.759 159.807 122.301 159.807C121.135 159.807 120.844 157.475 120.552 155.143C120.261 152.811 117.928 144.648 117.928 144.648L120.844 145.523Z" fill="#2A3742"/>
<path d="M100.437 181.672C100.437 181.672 103.644 184.296 106.851 183.713C109.474 183.421 113.556 180.797 113.264 172.052C112.973 163.306 112.098 159.225 112.098 159.225L122.593 154.561C122.593 154.561 125.508 161.266 126.091 174.092C126.674 187.211 126.966 191.584 126.966 191.584C126.966 191.584 115.596 192.167 108.891 191.584C102.186 191.001 99.5626 190.126 99.5626 190.126L100.437 181.672Z" fill="#2A3742"/>
<path d="M121.719 157.184C121.719 157.767 122.01 158.058 122.302 158.058C122.593 158.058 122.885 157.767 122.885 157.184C122.885 156.601 122.593 156.309 122.302 156.309C122.01 156.309 121.719 156.601 121.719 157.184Z" fill="white"/>
<path d="M115.596 160.1C115.888 160.392 115.888 160.975 115.596 161.266C115.305 161.558 114.722 161.266 114.43 160.975C114.139 160.683 114.139 160.1 114.43 159.808C114.722 159.517 115.013 159.809 115.596 160.1Z" fill="white"/>
<path d="M123.759 161.266C124.051 163.307 124.051 170.303 119.969 171.469C116.471 172.344 115.596 168.262 114.722 165.056C119.386 163.89 123.759 161.266 123.759 161.266Z" fill="#3C4D56"/>
<path d="M110.348 126.575C113.263 124.243 119.968 123.66 122.592 130.657C125.216 137.945 118.511 147.273 115.012 145.816C112.972 144.941 108.89 141.734 107.724 137.945C106.267 133.572 108.307 128.325 110.348 126.575Z" fill="#FFC5B3"/>
<path d="M138.042 207.326V180.506L116.47 169.719V195.082L138.042 207.326Z" fill="#DBA763"/>
<path d="M138.042 207.326V180.506L159.615 169.719V195.082L138.042 207.326Z" fill="#E8B679"/>
<path d="M138.042 207.617V180.505L116.47 167.97V195.081L138.042 207.617Z" fill="#DBA763"/>
<path d="M138.042 207.617V180.505L159.615 167.97V195.081L138.042 207.617Z" fill="#E8B679"/>
<path d="M159.615 167.971L138.043 180.507L116.47 167.971L138.043 155.436L159.615 167.971Z" fill="#FFE1C0"/>
<path d="M124.341 180.507L129.297 183.422V175.259L124.341 172.635V180.507Z" fill="#3C4D56"/>
<path d="M124.341 172.636L145.914 160.1L150.869 163.016L129.297 175.259L124.341 172.636Z" fill="#3C4D56"/>
<path d="M135.127 203.828V202.37L127.839 197.998V199.455L135.127 203.828Z" fill="#3C4D56"/>
<path d="M135.127 201.205V199.748L127.839 195.666V197.124L135.127 201.205Z" fill="#3C4D56"/>
<path d="M121.426 191.002V195.957L117.928 193.917V188.961L121.426 191.002Z" fill="#3C4D56"/>
<path d="M154.951 190.418V195.665L158.449 193.625V188.669L154.951 190.418Z" fill="#3C4D56"/>
<path d="M150.287 193.334V198.29L153.785 196.25V191.294L150.287 193.334Z" fill="#3C4D56"/>
<path d="M151.161 175.842V183.13L158.449 179.049V171.761L151.161 175.842Z" fill="white"/>
<path d="M152.036 177.3V176.133L157.866 172.927V174.093L152.036 177.3Z" fill="#3C4D56"/>
<path d="M110.932 169.429C110.932 169.429 115.013 178.175 116.762 180.507C118.511 182.839 125.216 188.378 126.674 189.252C128.131 190.127 131.338 191.001 133.087 191.001C134.836 190.71 136.002 191.584 134.253 192.168C132.504 192.751 131.046 193.042 131.046 193.042C131.046 193.042 133.962 195.374 135.128 197.123C136.002 198.581 136.877 201.496 133.087 200.622C130.172 200.039 126.091 195.374 124.925 194.5C122.884 192.459 114.721 188.086 112.972 186.92C110.349 185.171 103.06 174.385 103.06 174.385C103.06 174.385 105.684 168.263 110.932 169.429Z" fill="#FFC5B3"/>
<path d="M99.2709 153.395C101.312 151.646 105.976 157.477 108.308 160.975C110.64 164.473 112.681 170.012 112.681 170.012C112.681 170.012 109.766 172.053 107.142 173.802C105.101 175.259 102.769 176.134 102.769 176.134C102.769 176.134 91.9829 159.226 99.2709 153.395Z" fill="#ED3A3A"/>
<path d="M123.175 133.28C122.009 134.446 120.26 135.904 116.762 135.321C113.847 134.738 111.806 133.572 111.806 133.572L111.223 137.361C111.223 137.361 110.64 137.361 110.057 137.07C110.057 135.612 109.474 135.029 108.599 135.612C107.725 136.195 107.725 138.236 107.725 138.236C107.725 138.236 104.809 135.321 105.684 130.948C106.267 128.324 110.057 122.785 115.304 123.368C120.552 123.951 123.467 127.158 124.05 130.365C124.341 131.531 123.758 132.697 123.175 133.28Z" fill="#3C4D56"/>
<path d="M124.341 129.782C124.341 129.782 131.046 134.447 132.212 135.613C133.378 136.487 126.965 140.86 122.3 139.403C117.636 137.945 110.931 132.989 110.931 132.989L124.341 129.782Z" fill="#2A3742"/>
<path d="M124.341 129.783C124.341 129.783 116.762 134.448 112.098 133.282C107.433 131.824 105.976 130.658 105.976 130.658C105.976 130.658 106.267 120.746 115.013 120.746C123.758 120.746 124.341 129.783 124.341 129.783Z" fill="#3C4D56"/>
<path d="M115.887 121.62C116.531 121.62 117.053 121.359 117.053 121.037C117.053 120.715 116.531 120.454 115.887 120.454C115.243 120.454 114.721 120.715 114.721 121.037C114.721 121.359 115.243 121.62 115.887 121.62Z" fill="#2A3742"/>
<path d="M190.516 282.829C187.892 281.662 185.56 279.913 186.435 278.456C186.726 277.873 187.601 277.581 188.476 277.29C190.808 278.164 191.974 278.456 191.974 278.456C191.974 278.456 191.682 265.046 190.808 259.215C190.516 257.466 199.262 257.175 199.262 257.175C199.553 258.341 199.845 270.002 199.262 276.707C198.97 279.039 199.262 280.496 199.262 281.662C198.679 281.954 197.513 282.537 196.347 282.829C195.18 284.286 193.14 284.286 190.516 282.829Z" fill="#FFC5B3"/>
<path d="M199.262 286.035C198.387 288.075 196.347 287.784 192.557 286.326C189.059 285.16 186.143 283.702 183.811 281.662C181.187 279.913 181.187 279.621 180.896 278.455C180.313 276.706 182.937 275.831 187.309 276.998C187.601 276.998 188.184 277.289 188.475 277.289C187.601 277.289 187.018 277.581 186.435 278.455C185.56 279.913 188.184 281.37 190.516 282.828C193.14 283.994 195.18 283.994 196.347 283.411C197.221 283.119 198.387 282.536 199.262 282.245C199.553 283.994 199.845 284.869 199.262 286.035Z" fill="#3C4D56"/>
<path d="M178.272 290.118C175.648 288.952 173.316 287.203 174.191 285.745C174.482 285.162 175.357 284.871 176.232 284.579C178.564 285.454 179.73 285.745 179.73 285.745C179.73 285.745 179.147 264.464 177.981 258.925C177.689 257.176 186.435 259.8 186.435 259.8C186.726 260.966 187.309 277.291 186.726 284.287C186.435 286.62 186.726 288.077 186.726 289.243C186.143 289.535 184.977 290.118 183.811 290.409C182.936 291.284 180.896 291.284 178.272 290.118Z" fill="#FFC5B3"/>
<path d="M187.018 293.324C186.143 295.365 184.103 295.074 180.313 293.616C176.815 292.45 173.899 290.992 171.567 288.952C168.944 287.203 168.944 286.911 168.652 285.745C168.069 283.996 170.693 283.121 175.065 284.287C175.357 284.287 175.94 284.579 176.232 284.579C175.357 284.579 174.774 284.87 174.191 285.745C173.316 287.203 175.94 288.66 178.272 290.118C180.896 291.284 182.936 291.284 184.103 290.701C184.977 290.409 186.143 289.826 187.018 289.535C187.018 291.284 187.601 292.158 187.018 293.324Z" fill="#3C4D56"/>
<path d="M187.601 145.814C186.435 146.397 182.645 147.564 181.479 156.018C180.605 163.597 182.062 165.638 183.811 166.221C184.686 166.512 187.601 166.512 187.601 166.512V172.926C187.601 172.926 191.391 174.383 194.889 172.926C198.387 171.468 198.387 171.468 198.387 171.468C198.387 171.468 196.93 169.136 197.221 164.763C197.513 159.516 199.262 151.936 198.096 149.313C195.764 144.357 190.225 143.774 187.601 145.814Z" fill="#FFC5B3"/>
<path d="M200.428 167.388C200.428 167.388 190.225 170.303 187.601 171.177C184.978 172.052 183.229 173.801 180.605 179.049C177.981 184.296 180.022 192.167 180.022 192.167L180.896 206.451C180.896 206.451 186.144 212.865 191.1 213.448C197.513 214.031 198.388 210.533 198.388 210.533C198.388 210.533 206.842 192.167 205.384 183.713C203.635 175.55 200.428 167.388 200.428 167.388Z" fill="#FF514D"/>
<path d="M181.188 153.104C181.479 156.019 183.811 156.893 186.143 159.226C188.184 161.558 188.476 164.473 189.059 166.514C189.642 168.554 188.767 177.591 191.974 184.296C195.472 191.584 199.845 193.042 199.845 193.042C199.845 193.042 205.967 183.422 208.299 171.761C210.631 160.1 202.469 144.941 193.723 143.192C184.977 141.151 180.605 146.982 181.188 153.104Z" fill="#3C4D56"/>
<path d="M182.937 176.132C184.977 175.841 187.309 179.922 187.018 184.586C186.726 190.708 173.9 201.203 173.9 201.203C169.527 203.827 156.408 200.037 153.202 199.454C149.995 199.162 146.497 200.037 144.456 199.745C142.707 199.162 140.083 196.247 141.249 195.081C142.124 194.206 148.246 194.206 148.246 194.206C148.246 194.206 147.08 191.583 147.08 191C147.08 188.084 148.537 191.291 150.286 192.749C152.327 194.498 153.785 194.498 155.534 194.789C163.696 195.956 171.276 194.206 171.276 194.206C171.276 194.206 178.855 176.424 182.937 176.132Z" fill="#FFC5B3"/>
<path d="M193.14 142.9C193.14 142.9 184.686 143.483 185.561 150.771C186.144 158.059 186.144 159.225 186.144 159.225C186.144 159.225 184.686 154.852 183.811 151.646C182.937 148.147 184.103 140.568 193.14 142.9Z" fill="#FF514D"/>
<path d="M183.811 157.183C183.811 157.183 186.144 153.394 187.018 157.183C187.893 160.682 184.686 161.848 184.686 161.848L183.811 157.183Z" fill="#FFC5B3"/>
<path d="M198.678 203.245C198.678 203.245 201.594 211.699 202.468 216.946C204.8 229.773 203.926 257.759 203.926 257.759C203.926 257.759 192.556 264.173 184.394 263.881C172.733 263.007 169.526 257.759 169.526 257.759C169.526 257.759 174.191 230.648 175.065 224.817C176.523 213.448 181.479 202.37 181.479 202.37L198.678 203.245Z" fill="#FF514D"/>
<path d="M200.428 209.075C200.428 209.075 192.557 211.699 187.018 209.95C181.479 208.201 179.73 207.035 179.73 207.035L180.313 203.828C180.313 203.828 184.103 205.577 189.933 206.452C195.18 207.326 200.136 204.994 200.136 204.994L200.428 209.075Z" fill="#ED3A3A"/>
<path d="M441.33 300.029V191.875L527.912 141.734V249.888L441.33 300.029Z" fill="#DBA763"/>
<path d="M441.33 300.029V191.875L355.04 141.734V249.888L441.33 300.029Z" fill="#E8B679"/>
<path d="M355.04 141.733L441.33 191.875L527.912 141.733L441.33 91.8835L355.04 141.733Z" fill="#FFE1C0"/>
<path d="M495.844 191.874L476.604 202.952V171.468L495.844 160.39V191.874Z" fill="#2A3742"/>
<path d="M495.844 160.389L409.263 110.248L390.022 121.617L476.604 171.467L495.844 160.389Z" fill="#3C4D56"/>
<path d="M452.99 284.577V279.038L481.851 262.13V267.96L452.99 284.577Z" fill="#2A3742"/>
<path d="M452.99 274.666V269.127L481.851 252.219V257.758L452.99 274.666Z" fill="#2A3742"/>
<path d="M508.088 234.145V253.385L521.789 245.222V225.982L508.088 234.145Z" fill="#2A3742"/>
<path d="M373.988 232.103V252.218L359.995 244.055V223.94L373.988 232.103Z" fill="#2A3742"/>
<path d="M392.937 243.18V263.295L378.944 255.133V235.018L392.937 243.18Z" fill="#2A3742"/>
<path d="M388.564 173.216V202.077L359.995 185.752V156.6L388.564 173.216Z" fill="white"/>
<path d="M385.066 179.047V174.382L362.619 161.555V166.22L385.066 179.047Z" fill="#2A3742"/>
<path d="M559.979 368.828V309.358L646.56 259.216V318.686L559.979 368.828Z" fill="#DBA763"/>
<path d="M559.979 368.828V309.358L473.398 259.216V318.686L559.979 368.828Z" fill="#E8B679"/>
<path d="M473.398 259.216L559.979 309.357L646.561 259.216L559.979 209.366L473.398 259.216Z" fill="#FFE1C0"/>
<path d="M614.202 309.357L594.962 320.435V288.951L614.202 277.873V309.357Z" fill="#2A3742"/>
<path d="M614.202 277.872L527.912 227.731L508.671 239.1L594.961 288.95L614.202 277.872Z" fill="#3C4D56"/>
<path d="M571.349 353.376V347.837L600.501 330.929V336.759L571.349 353.376Z" fill="#2A3742"/>
<path d="M571.349 343.464V337.926L600.501 321.017V326.848L571.349 343.464Z" fill="#2A3742"/>
<path d="M626.446 302.943V322.183L640.439 314.312V294.78L626.446 302.943Z" fill="#2A3742"/>
<path d="M490.889 304.109V324.224L476.896 316.353V296.238L490.889 304.109Z" fill="#2A3742"/>
<path d="M509.838 315.188V335.303L495.845 327.14V307.025L509.838 315.188Z" fill="#2A3742"/>
<path d="M556.189 311.69V340.55L527.62 324.225V295.365L556.189 311.69Z" fill="white"/>
<path d="M552.692 317.81V312.854L530.245 300.027V304.692L552.692 317.81Z" fill="#2A3742"/>
<path d="M560.853 292.741V257.759L616.825 225.4V260.383L560.853 292.741Z" fill="#DBA763"/>
<path d="M560.853 292.742V257.759L495.553 220.153V254.844L560.853 292.742Z" fill="#E8B679"/>
<path d="M495.553 220.152L560.853 257.758L616.825 225.4L551.525 187.793L495.553 220.152Z" fill="#FFE1C0"/>
<path d="M565.226 286.328V282.538L583.883 271.752V275.542L565.226 286.328Z" fill="#2A3742"/>
<path d="M565.226 279.915V276.125L583.883 265.339V269.128L565.226 279.915Z" fill="#2A3742"/>
<path d="M509.546 234.146V250.472L498.468 244.058V227.733L509.546 234.146Z" fill="#2A3742"/>
<path d="M556.481 261.549V280.789L527.912 264.172V244.932L556.481 261.549Z" fill="white"/>
<path d="M552.982 267.38V262.715L530.535 249.597V254.261L552.982 267.38Z" fill="#2A3742"/>
<path d="M602.541 251.929L583.301 263.298V244.933L602.541 233.563V251.929Z" fill="#2A3742"/>
<path d="M602.541 233.562L537.532 195.956L518.291 207.034L583.3 244.931L602.541 233.562Z" fill="#3C4D56"/>
<path d="M383.901 283.995L242.805 365.621C239.598 367.37 236.974 365.621 236.974 361.248V248.43C236.974 244.348 239.598 239.392 242.805 237.643L383.901 156.018C387.107 154.269 389.731 156.018 389.731 160.39V273.209C389.731 277.29 387.107 282.246 383.901 283.995Z" fill="#1B2630"/>
<path d="M239.015 365.913L246.594 369.994L246.012 361.54L239.015 365.913Z" fill="#1B2630"/>
<path d="M395.27 160.099L387.69 155.727L384.775 170.886L395.27 160.099Z" fill="#1B2630"/>
<path d="M391.481 288.368L250.385 369.994C247.178 371.743 244.554 369.994 244.554 365.621V252.803C244.554 248.721 247.178 243.766 250.385 242.016L391.481 160.391C394.687 158.642 397.311 160.391 397.311 164.764V277.582C397.311 281.663 394.687 286.619 391.481 288.368Z" fill="#3C4D56"/>
<path d="M392.354 275.542L249.801 358.042V248.722L392.354 166.513V275.542Z" fill="#232E3A"/>
<path d="M336.383 316.646L318.309 327.14C317.434 327.724 316.56 327.14 316.56 325.974C316.56 324.808 317.434 323.351 318.309 322.768L336.383 312.273C337.258 311.69 338.132 312.273 338.132 313.439C337.841 314.605 337.258 316.063 336.383 316.646Z" fill="white"/>
<path d="M387.108 174.675L254.758 251.053V349.879L387.108 273.5V174.675Z" fill="#4DC5AC"/>
<path d="M375.738 192.167L268.167 254.261V342.008L375.738 280.497V192.167Z" fill="white"/>
<path d="M309.563 247.847L273.415 268.254V332.097L309.563 311.982V247.847Z" fill="#EADCE1"/>
<path d="M339.298 231.23L314.227 245.806V285.161L339.298 270.585V231.23Z" fill="#EADCE1"/>
<path d="M370.491 259.508L319.183 289.826V298.571L370.491 268.545V259.508Z" fill="#3C4D56"/>
<path d="M370.2 213.157L345.129 227.733V231.231L370.2 216.947V213.157Z" fill="#EADCE1"/>
<path d="M370.2 221.902L345.129 236.478V239.977L370.2 225.692V221.902Z" fill="#EADCE1"/>
<path d="M370.2 230.938L345.129 245.514V249.012L370.2 234.728V230.938Z" fill="#EADCE1"/>
<path d="M370.2 239.976L345.129 254.552V258.342L370.2 243.766V239.976Z" fill="#EADCE1"/>
<path d="M370.2 249.012L345.129 263.588V267.378L370.2 252.802V249.012Z" fill="#EADCE1"/>
<path d="M375.738 186.336L268.167 248.139V265.921L375.738 204.411V186.336Z" fill="#FF514D"/>
<path d="M508.671 371.16L372.24 449.871C368.741 451.911 362.328 451.62 357.955 449.287L253.591 389.234C249.51 386.902 248.927 383.112 252.425 381.072L388.856 302.361C392.355 300.321 398.768 300.612 403.141 302.944L507.505 362.997C511.878 365.33 512.169 368.828 508.671 371.16Z" fill="#1B2630"/>
<path d="M259.713 375.242H250.384V384.571H259.713V375.242Z" fill="#1B2630"/>
<path d="M511.003 358.625H501.674V367.953H511.003V358.625Z" fill="#1B2630"/>
<path d="M508.671 362.415L372.24 441.125C368.742 443.166 362.328 442.874 357.956 440.542L253.591 380.489C249.51 378.157 248.927 374.367 252.425 372.326L388.857 293.616C392.355 291.575 398.768 291.867 403.141 294.199L507.505 354.252C511.878 356.584 512.17 360.374 508.671 362.415Z" fill="#3C4D56"/>
<path d="M465.818 338.218L330.552 416.054L262.045 376.407L397.31 298.571L465.818 338.218Z" fill="#2A3742"/>
<path d="M458.238 384.278L410.429 411.972L384.775 397.105L432.584 369.702L458.238 384.278Z" fill="#1B2630"/>
<path d="M267.875 376.407L277.495 370.868L284.2 374.949L274.872 380.197L267.875 376.407Z" fill="#1B2630"/>
<path d="M277.787 381.946L287.407 376.698L294.112 380.488L284.784 386.027L277.787 381.946Z" fill="#1B2630"/>
<path d="M287.699 387.775L300.526 380.487L307.231 384.277L294.404 391.565L287.699 387.775Z" fill="#1B2630"/>
<path d="M409.554 317.227L415.676 313.729L432.293 323.349L426.171 326.847L409.554 317.227Z" fill="#1B2630"/>
<path d="M297.611 393.315L310.438 386.027L317.143 390.108L304.316 397.396L297.611 393.315Z" fill="#1B2630"/>
<path d="M307.522 399.145L324.139 389.525L331.136 393.314L314.227 402.935L307.522 399.145Z" fill="#1B2630"/>
<path d="M410.429 339.674L435.791 325.098L442.496 328.888L417.425 343.464L410.429 339.674Z" fill="#1B2630"/>
<path d="M317.143 404.684L326.763 399.436L333.468 403.226L324.139 408.765L317.143 404.684Z" fill="#1B2630"/>
<path d="M279.828 369.702L289.156 364.163L295.861 367.953L286.533 373.492L279.828 369.702Z" fill="#1B2630"/>
<path d="M289.739 375.241L299.068 369.702L305.773 373.783L296.444 379.03L289.739 375.241Z" fill="#1B2630"/>
<path d="M291.781 362.704L301.109 357.166L307.814 361.247L298.486 366.494L291.781 362.704Z" fill="#1B2630"/>
<path d="M301.692 368.243L311.021 362.996L317.726 366.786L308.397 372.324L301.692 368.243Z" fill="#1B2630"/>
<path d="M303.441 356L313.062 350.461L319.766 354.251L310.146 359.79L303.441 356Z" fill="#1B2630"/>
<path d="M313.353 361.539L322.681 356L329.678 360.081L320.058 365.62L313.353 361.539Z" fill="#1B2630"/>
<path d="M315.393 349.004L324.722 343.465L331.718 347.546L322.098 352.794L315.393 349.004Z" fill="#1B2630"/>
<path d="M325.305 354.834L334.634 349.295L341.339 353.085L332.01 358.624L325.305 354.834Z" fill="#1B2630"/>
<path d="M327.054 342.298L336.674 336.759L343.379 340.549L334.051 346.088L327.054 342.298Z" fill="#1B2630"/>
<path d="M336.966 347.837L346.587 342.59L353.292 346.379L343.671 351.918L336.966 347.837Z" fill="#1B2630"/>
<path d="M339.006 335.302L348.626 329.763L355.331 333.844L346.003 339.383L339.006 335.302Z" fill="#1B2630"/>
<path d="M348.918 341.132L358.247 335.594L365.243 339.383L355.623 344.922L348.918 341.132Z" fill="#1B2630"/>
<path d="M303.149 378.739L312.478 373.491L319.183 377.281L309.854 382.82L303.149 378.739Z" fill="#1B2630"/>
<path d="M313.061 384.568L322.389 379.03L329.094 383.111L319.766 388.358L313.061 384.568Z" fill="#1B2630"/>
<path d="M315.102 372.034L324.431 366.495L331.136 370.576L321.807 375.824L315.102 372.034Z" fill="#1B2630"/>
<path d="M325.013 377.573L334.342 372.325L341.047 376.115L331.719 381.654L325.013 377.573Z" fill="#1B2630"/>
<path d="M326.763 365.038L336.383 359.791L343.088 363.58L333.468 369.119L326.763 365.038Z" fill="#1B2630"/>
<path d="M336.674 370.867L346.003 365.329L352.999 369.41L343.379 374.657L336.674 370.867Z" fill="#1B2630"/>
<path d="M338.715 358.331L348.044 352.792L355.04 356.874L345.42 362.121L338.715 358.331Z" fill="#1B2630"/>
<path d="M348.627 363.87L357.956 358.623L364.66 362.413L355.332 367.951L348.627 363.87Z" fill="#1B2630"/>
<path d="M350.376 351.627L359.996 346.088L366.701 349.878L357.372 355.417L350.376 351.627Z" fill="#1B2630"/>
<path d="M360.288 357.166L369.908 351.627L376.613 355.709L366.993 361.247L360.288 357.166Z" fill="#1B2630"/>
<path d="M362.328 344.631L371.948 339.092L378.653 343.173L369.033 348.421L362.328 344.631Z" fill="#1B2630"/>
<path d="M372.24 350.461L381.569 344.922L388.565 348.712L378.945 354.251L372.24 350.461Z" fill="#1B2630"/>
<path d="M374.28 337.925L383.609 332.386L390.314 336.176L380.985 341.715L374.28 337.925Z" fill="#1B2630"/>
<path d="M384.192 343.465L393.521 337.926L400.226 342.008L390.897 347.546L384.192 343.465Z" fill="#1B2630"/>
<path d="M327.637 387.484L336.966 381.945L343.671 386.026L334.342 391.565L327.637 387.484Z" fill="#1B2630"/>
<path d="M339.298 380.779L348.918 375.24L355.623 379.03L346.294 384.569L339.298 380.779Z" fill="#1B2630"/>
<path d="M351.25 373.784L360.579 368.536L367.284 372.326L357.955 377.865L351.25 373.784Z" fill="#1B2630"/>
<path d="M363.203 367.077L372.532 361.538L379.237 365.328L369.908 370.867L363.203 367.077Z" fill="#1B2630"/>
<path d="M374.864 360.081L384.193 354.834L391.189 358.624L381.569 364.162L374.864 360.081Z" fill="#1B2630"/>
<path d="M386.816 353.377L396.145 347.838L403.141 351.919L393.521 357.166L386.816 353.377Z" fill="#1B2630"/>
<path d="M398.768 346.379L408.097 341.132L414.802 344.922L405.473 350.46L398.768 346.379Z" fill="#1B2630"/>
<path d="M386.233 330.93L395.561 325.391L402.266 329.472L392.938 334.719L386.233 330.93Z" fill="#1B2630"/>
<path d="M395.853 336.468L405.473 331.221L412.178 335.011L402.85 340.55L395.853 336.468Z" fill="#1B2630"/>
<path d="M397.894 324.225L407.222 318.686L414.219 322.476L404.599 328.014L397.894 324.225Z" fill="#1B2630"/>
<path d="M407.805 329.763L417.134 324.224L424.13 328.306L414.51 333.845L407.805 329.763Z" fill="#1B2630"/>
<path d="M350.958 328.598L360.287 323.059L366.992 327.14L357.663 332.387L350.958 328.598Z" fill="#1B2630"/>
<path d="M360.579 334.136L370.199 328.889L376.904 332.679L367.575 338.218L360.579 334.136Z" fill="#1B2630"/>
<path d="M362.911 321.602L372.24 316.063L379.236 320.144L369.616 325.391L362.911 321.602Z" fill="#1B2630"/>
<path d="M372.823 327.14L382.151 321.893L388.856 325.683L379.528 331.222L372.823 327.14Z" fill="#1B2630"/>
<path d="M374.864 314.895L384.193 309.356L390.898 313.146L381.569 318.685L374.864 314.895Z" fill="#1B2630"/>
<path d="M384.484 320.434L394.104 314.895L400.809 318.976L391.48 324.224L384.484 320.434Z" fill="#1B2630"/>
<path d="M386.525 307.899L396.145 302.36L402.85 306.442L393.521 311.689L386.525 307.899Z" fill="#1B2630"/>
<path d="M396.436 313.438L406.056 308.191L412.761 311.98L403.141 317.519L396.436 313.438Z" fill="#1B2630"/>
<path d="M329.095 397.979L338.423 392.44L345.42 396.521L335.8 402.06L329.095 397.979Z" fill="#1B2630"/>
<path d="M341.047 391.274L350.376 385.735L357.081 389.525L347.752 395.063L341.047 391.274Z" fill="#1B2630"/>
<path d="M402.849 355.416L412.178 349.877L418.883 353.958L409.554 359.497L402.849 355.416Z" fill="#1B2630"/>
<path d="M414.51 348.712L424.13 343.173L430.835 347.254L421.215 352.501L414.51 348.712Z" fill="#1B2630"/>
<path d="M426.463 341.716L435.791 336.469L442.788 340.259L433.168 345.798L426.463 341.716Z" fill="#1B2630"/>
<path d="M438.123 335.01L445.411 330.929L452.116 334.719L444.828 339.092L438.123 335.01Z" fill="#1B2630"/>
<path d="M353 384.278L400.518 356.875L407.223 360.665L359.705 388.068L353 384.278Z" fill="#1B2630"/>
<path d="M272.831 397.979L259.421 390.4V386.027L272.831 393.607V397.979Z" fill="white"/>
<path d="M288.573 407.015L275.163 399.144V395.063L288.573 402.642V407.015Z" fill="white"/>
<path d="M272.249 255.718C272.249 252.803 273.415 250.179 275.455 249.305C277.205 248.138 278.662 249.305 278.662 252.22C278.662 255.135 277.496 257.759 275.455 258.925C273.415 259.799 272.249 258.925 272.249 255.718ZM276.913 253.094C276.913 251.345 276.33 250.471 275.455 251.054C274.581 251.637 273.998 253.094 273.998 254.843C273.998 256.593 274.581 257.467 275.455 256.884C276.33 256.592 276.913 254.843 276.913 253.094Z" fill="white"/>
<path d="M279.828 246.971L281.285 246.097L283.034 249.595L283.618 251.344C283.618 250.47 283.326 249.303 283.326 248.137V244.931L284.784 244.056V253.385L283.326 254.259L281.577 250.761L280.994 249.012C280.994 249.887 281.285 251.053 281.285 252.219V255.425L279.828 256.3V246.971Z" fill="white"/>
<path d="M286.825 242.889L288.282 242.015V249.594L290.906 248.137V249.886L286.533 252.218V242.889H286.825Z" fill="white"/>
<path d="M292.363 239.684L293.821 238.809V248.138L292.363 249.012V239.684Z" fill="white"/>
<path d="M295.57 237.934L297.028 237.06L298.777 240.558L299.36 242.307C299.36 241.432 299.068 240.266 299.068 239.1V235.894L300.526 235.019V244.348L299.068 245.222L297.319 241.724L296.736 239.975C296.736 240.849 297.028 242.016 297.028 243.182V246.388L295.57 247.263V237.934Z" fill="white"/>
<path d="M302.567 233.853L306.939 231.229V232.978L304.316 234.436V236.185L306.648 234.727V236.477L304.316 237.934V239.975L307.231 238.226V239.975L302.858 242.599V233.853H302.567Z" fill="white"/>
<path d="M313.644 234.145L311.604 235.311L311.312 237.643L309.854 238.518L311.895 228.023L313.644 226.857L315.685 234.728L313.936 235.603L313.644 234.145ZM313.353 232.979L313.061 232.105C312.77 231.23 312.77 230.355 312.478 229.481C312.187 230.647 312.187 231.813 311.895 232.688L311.604 233.562L313.353 232.979Z" fill="white"/>
<path d="M319.474 223.941C320.349 223.358 320.932 223.65 321.515 223.941L320.64 225.69C320.349 225.399 320.057 225.399 319.474 225.69C318.6 226.273 317.725 227.731 317.725 229.772C317.725 231.812 318.308 232.395 319.474 231.812C320.057 231.521 320.349 230.938 320.932 230.355L321.806 231.229C321.223 232.395 320.349 233.27 319.474 233.853C317.725 235.019 316.267 234.144 316.267 230.938C316.267 227.439 317.725 224.816 319.474 223.941Z" fill="white"/>
<path d="M325.305 220.444C326.18 219.861 326.763 220.152 327.346 220.444L326.471 222.193C326.18 221.901 325.888 221.901 325.305 222.193C324.431 222.776 323.556 224.233 323.556 226.274C323.556 228.315 324.139 228.898 325.305 228.315C325.888 228.023 326.18 227.44 326.763 226.857L327.637 227.732C327.054 228.898 326.18 229.772 325.305 230.355C323.556 231.521 322.098 230.647 322.098 227.44C321.807 224.233 323.265 221.61 325.305 220.444Z" fill="white"/>
<path d="M327.637 223.941C327.637 221.026 328.803 218.402 330.844 217.527C332.593 216.361 334.051 217.527 334.051 220.443C334.051 223.358 332.885 225.982 330.844 227.148C328.803 228.022 327.637 226.856 327.637 223.941ZM332.302 221.026C332.302 219.277 331.719 218.402 330.844 218.985C329.97 219.568 329.387 221.026 329.387 222.775C329.387 224.524 329.97 225.398 330.844 224.815C331.719 224.524 332.302 223.066 332.302 221.026Z" fill="white"/>
<path d="M335.217 214.904L336.674 214.03V219.277C336.674 221.026 336.966 221.609 337.84 221.026C338.715 220.443 339.006 219.569 339.006 217.819V212.572L340.464 211.698V216.653C340.464 219.86 339.589 221.609 337.84 222.775C336.091 223.941 335.217 223.067 335.217 219.86V214.904Z" fill="white"/>
<path d="M342.213 210.823L343.671 209.949L345.42 213.447L346.003 215.196C346.003 214.322 345.712 213.156 345.712 211.989V208.783L347.169 207.908V217.237L345.712 218.111L343.962 214.613L343.379 212.864C343.379 213.739 343.671 214.905 343.671 216.071V219.277L342.213 220.152V210.823Z" fill="white"/>
<path d="M350.667 207.617L348.627 208.783V207.034L353.874 203.827V205.576L351.833 206.742V214.322L350.376 215.196V207.617H350.667Z" fill="white"/>
<path d="M355.332 203.244L356.789 202.369V211.698L355.332 212.572V203.244Z" fill="white"/>
<path d="M358.247 201.494L359.704 200.619L361.454 204.118L362.037 205.867C362.037 204.992 361.745 203.826 361.745 202.66V199.453L363.203 198.579V207.907L361.745 208.782L359.996 205.284L359.413 203.534C359.413 204.409 359.704 205.575 359.704 206.741V209.948L358.247 210.823V201.494Z" fill="white"/>
<path d="M368.45 195.373C369.325 194.789 370.199 195.081 370.491 195.373L369.616 197.122C369.325 196.83 369.033 196.83 368.45 197.122C367.284 197.705 366.701 199.162 366.701 201.203C366.701 203.244 367.284 203.827 368.742 202.952C369.033 202.66 369.325 202.66 369.325 202.369V200.911L368.159 201.494V199.745L370.782 198.288V202.661C370.199 203.535 369.325 204.701 368.45 204.993C366.701 206.159 365.243 205.284 365.243 202.077C364.952 199.162 366.701 196.539 368.45 195.373Z" fill="white"/>
<path d="M487.391 364.164C480.103 360.082 460.279 351.92 449.784 348.422C438.998 344.923 420.341 337.052 415.385 329.181C411.304 322.476 418.3 313.731 418.3 313.731L375.738 338.51C375.738 338.51 369.033 346.964 373.115 353.377C377.779 361.249 395.27 369.703 406.056 373.201C416.843 376.699 437.832 383.987 445.12 388.068C454.157 393.316 457.947 400.604 457.947 400.604L500.217 376.116C499.343 374.95 495.262 368.828 487.391 364.164Z" fill="white"/>
<path d="M499.635 382.53C502.258 379.031 499.343 374.658 499.343 374.658L457.073 399.146C457.073 399.146 459.696 403.519 457.364 407.017C454.741 410.515 453.574 416.054 460.571 420.427C467.567 424.8 490.598 433.837 490.598 433.837L532.868 409.349C531.993 409.058 509.838 400.312 502.841 395.939C495.845 391.567 497.011 386.319 499.635 382.53Z" fill="#EADCE1"/>
<path d="M419.466 309.649C420.632 305.859 420.632 302.653 418.009 298.571C415.676 294.49 404.016 288.368 397.019 283.995C390.023 279.623 365.243 266.796 365.243 266.796L322.973 291.283C322.973 291.283 347.752 304.11 354.749 308.483C361.745 312.856 373.406 318.978 375.738 323.059C378.07 327.14 378.07 330.347 377.196 334.137C376.03 337.927 375.155 339.093 375.155 339.093L417.425 314.605C417.717 314.896 418.592 313.439 419.466 309.649Z" fill="#EADCE1"/>
<path d="M368.158 271.751L332.01 292.449L329.969 291.283L366.118 270.585L368.158 271.751Z" fill="#232E3A"/>
<path d="M374.864 275.251L338.715 296.24L336.674 295.074L372.823 274.085L374.864 275.251Z" fill="#232E3A"/>
<path d="M395.853 286.911L359.704 307.609L357.664 306.735L393.812 285.745L395.853 286.911Z" fill="#232E3A"/>
<path d="M381.86 279.039L360.287 291.575L358.247 290.409L379.819 277.873L381.86 279.039Z" fill="#232E3A"/>
<path d="M502.549 398.855L466.401 419.844L464.36 418.678L500.509 397.688L502.549 398.855Z" fill="#232E3A"/>
<path d="M509.254 402.644L473.105 423.342L471.065 422.468L507.213 401.478L509.254 402.644Z" fill="#232E3A"/>
<path d="M516.251 406.435L494.678 418.679L492.638 417.804L514.21 405.269L516.251 406.435Z" fill="#232E3A"/>
<path d="M422.09 338.8L385.942 359.79L383.901 358.624L420.049 337.634L422.09 338.8Z" fill="#232E3A"/>
<path d="M399.059 344.049L379.819 355.127L378.653 353.378L397.893 342.592L399.059 344.049Z" fill="#232E3A"/>
<path d="M428.795 342.59L392.646 363.58L390.606 362.414L426.463 341.424L428.795 342.59Z" fill="#232E3A"/>
<path d="M444.245 348.713L408.097 369.702L405.473 368.828L441.621 348.13L444.245 348.713Z" fill="#232E3A"/>
<path d="M452.408 351.044L416.259 372.034L413.636 370.868L449.784 350.17L452.408 351.044Z" fill="#232E3A"/>
<path d="M459.696 353.959L439.873 365.329L437.249 364.454L457.073 353.085L459.696 353.959Z" fill="#232E3A"/>
<path d="M466.692 356.293L446.577 367.662L443.954 366.788L463.777 355.418L466.692 356.293Z" fill="#232E3A"/>
<path d="M431.419 349.005L409.846 361.54L407.223 360.957L428.795 348.422L431.419 349.005Z" fill="#232E3A"/>
<path d="M388.565 282.829L366.993 295.364L364.952 294.198L386.525 281.954L388.565 282.829Z" fill="#232E3A"/>
<path d="M387.982 299.446L366.41 311.981L364.369 310.815L385.941 298.28L387.982 299.446Z" fill="#232E3A"/>
<path d="M394.396 303.528L373.115 316.063L371.074 314.897L392.647 302.362L394.396 303.528Z" fill="#232E3A"/>
<path d="M473.397 376.116L451.824 388.36L450.075 387.194L471.648 374.659L473.397 376.116Z" fill="#232E3A"/>
<path d="M482.143 363.581L445.412 384.279L443.08 383.404L479.811 362.415L482.143 363.581Z" fill="#232E3A"/>
<path d="M474.564 360.373L437.832 381.363L435.792 380.197L472.232 359.207L474.564 360.373Z" fill="#232E3A"/>
<path d="M415.676 298.864L378.653 320.728L377.195 319.562L414.218 297.406L415.676 298.864Z" fill="#232E3A"/>
<path d="M493.804 371.451L456.78 393.315L455.323 391.857L492.346 369.993L493.804 371.451Z" fill="#232E3A"/>
<path d="M402.849 290.7L392.063 297.114L390.022 295.948L400.517 289.826L402.849 290.7Z" fill="#232E3A"/>
<path d="M379.819 335.01L379.236 337.051L415.967 315.77L417.133 313.729L379.819 335.01Z" fill="#232E3A"/>
<path d="M377.195 342.008L375.738 344.631L412.469 323.35L413.344 321.31L377.195 342.008Z" fill="#232E3A"/>
<path d="M391.772 322.476L391.48 324.809L417.717 309.65L418.592 307.609L391.772 322.476Z" fill="#232E3A"/>
<path d="M461.445 405.268L460.862 407.309L494.969 387.486L496.136 385.445L461.445 405.268Z" fill="#232E3A"/>
<path d="M472.523 393.606L472.231 395.647L496.719 381.654L497.594 379.614L472.523 393.606Z" fill="#232E3A"/>
<path d="M284.568 174.784L214.311 134.262C209.355 131.347 209.939 126.1 215.769 122.893L252.792 101.612C258.622 98.1137 267.368 97.8222 272.615 100.737L342.872 141.259C347.828 144.174 347.245 149.421 341.414 152.628L304.391 173.909C298.561 177.116 289.524 177.699 284.568 174.784Z" fill="#ED3A3A"/>
<path d="M215.769 126.683H210.813V129.598H215.769V126.683Z" fill="#ED3A3A"/>
<path d="M284.568 171.869L214.312 131.347C209.356 128.432 209.939 123.185 215.769 119.978L252.793 98.6969C258.623 95.1987 267.369 94.9071 272.616 97.8223L342.872 138.344C347.828 141.259 347.245 146.506 341.415 149.713L304.392 170.994C298.561 174.201 289.524 174.492 284.568 171.869Z" fill="#FF514D"/>
<path d="M304.682 160.207L293.313 153.502C291.855 152.627 291.855 151.17 293.604 150.004L301.767 145.339C303.516 144.173 306.14 144.173 307.889 145.048L319.258 151.753C320.716 152.627 320.716 154.085 318.967 155.251L310.804 159.915C308.764 160.79 306.14 161.081 304.682 160.207Z" fill="white"/>
<path d="M332.377 154.668L243.755 103.652L252.792 98.405L341.706 149.13L332.377 154.668Z" fill="#2A3742"/>
<path d="M295.354 142.133L239.382 110.066L242.006 108.316L297.978 140.675L295.354 142.133Z" fill="white"/>
<path d="M288.066 146.506L232.094 114.147L234.718 112.689L290.69 144.756L288.066 146.506Z" fill="white"/>
<path d="M293.313 166.621L217.227 123.185L223.931 119.104L299.727 162.832L293.313 166.621Z" fill="white"/>
<path d="M318.093 157.292L297.686 145.631L299.435 144.465L319.842 156.417L318.093 157.292Z" fill="#FF514D"/>
<path d="M312.554 159.916L292.147 148.256L293.896 147.09L314.303 159.042L312.554 159.916Z" fill="#FF514D"/>
<path d="M293.022 157.292L291.856 156.417L312.554 144.465L314.012 145.339L293.022 157.292Z" fill="#FF514D"/>
<path d="M299.144 161.082L297.686 160.208L318.384 148.255L319.842 149.13L299.144 161.082Z" fill="#FF514D"/>
<path d="M209.065 85.2856V91.116C209.065 92.8652 209.939 94.6143 211.105 96.0719V85.2856H209.065Z" fill="#EAAD00"/>
<path d="M212.258 84.7727V97.7418C213.162 98.6466 214.067 99.2499 215.274 100.155V86.2807H216.782V101.06C217.988 101.663 218.893 101.964 220.099 102.568V88.392H221.607V102.869C222.814 103.171 224.322 103.472 225.528 103.774V90.8049H227.036V103.774C228.243 104.076 229.751 104.076 230.957 104.076V90.8049H232.465V104.377C233.973 104.377 235.18 104.377 236.688 104.076V90.8049H238.196V103.774C239.402 103.472 240.91 103.472 242.117 103.171V88.392H243.625V102.869C244.831 102.568 246.038 101.964 246.942 101.663V86.2807H248.45V100.758C249.657 100.155 250.562 99.5515 251.467 98.9483V84.7727H212.258Z" fill="#EAAD00"/>
<path d="M252.793 85.2852V97.529C254.833 95.4884 255.999 93.4477 255.999 91.1156V85.2852H252.793Z" fill="#EAAD00"/>
<path d="M210.814 85.2852V96.0714C211.106 96.6545 211.689 97.2375 212.272 97.8205V85.2852H210.814Z" fill="#FDCA01"/>
<path d="M215.478 86.4509V99.8609C216.061 100.152 216.352 100.444 216.935 100.735V86.4509H215.478Z" fill="#FDCA01"/>
<path d="M220.142 88.4915V102.193C220.725 102.484 221.017 102.484 221.6 102.776V88.783H220.142V88.4915Z" fill="#FDCA01"/>
<path d="M225.681 91.1155V103.651C226.264 103.651 226.556 103.942 227.139 103.942V91.1155H225.681Z" fill="#FDCA01"/>
<path d="M231.221 91.1155V103.942C231.804 103.942 232.095 103.942 232.678 103.942V91.1155H231.221Z" fill="#FDCA01"/>
<path d="M251.335 85.2852V98.6951C251.918 98.4036 252.501 97.8206 252.793 97.529V85.2852H251.335Z" fill="#FDCA01"/>
<path d="M246.67 86.4509V101.318C247.253 101.027 247.836 100.735 248.128 100.735V86.7425H246.67V86.4509Z" fill="#FDCA01"/>
<path d="M242.006 88.4915V102.776C242.589 102.776 242.881 102.484 243.464 102.484V88.4915H242.006Z" fill="#FDCA01"/>
<path d="M236.759 91.1155V103.942C237.342 103.942 237.634 103.942 238.217 103.651V91.1155H236.759Z" fill="#FDCA01"/>
<path d="M232.386 71.8748C219.268 71.8748 208.773 77.7052 208.773 84.9932C208.773 92.2812 219.268 98.1116 232.386 98.1116C245.504 98.1116 255.999 92.2812 255.999 84.9932C255.999 77.7052 245.504 71.8748 232.386 71.8748Z" fill="#FDCA01"/>
<path d="M232.386 74.4985C222.183 74.4985 213.728 79.1628 213.728 84.9932C213.728 90.8236 222.183 95.488 232.386 95.488C242.589 95.488 251.043 90.8236 251.043 84.9932C251.043 79.1628 242.88 74.4985 232.386 74.4985Z" fill="#FFD450"/>
<path d="M223.349 89.0743C222.183 88.1998 221.308 87.3252 221.017 86.4507L225.098 84.1185L227.139 85.2846L225.681 86.1592C225.098 86.4507 225.098 86.4507 225.389 86.7422C225.681 87.0337 225.973 87.3253 226.264 87.6168L231.22 84.7016C230.054 83.244 229.471 81.7864 232.386 79.7457C235.01 78.2881 238.216 77.9966 240.84 78.8712L243.172 77.4136L244.63 78.2881L242.298 79.7457C243.172 80.3288 244.047 81.2033 244.338 82.0779L240.549 84.1185L238.508 82.9524L239.965 82.0779C240.549 81.7864 240.549 81.7864 240.257 81.4948C240.257 81.2033 239.965 81.2033 239.674 80.9118L235.01 83.5355C236.176 84.9931 236.759 86.7422 233.552 88.4914C230.637 90.2405 227.43 90.2404 224.806 89.3659L222.183 90.8235L220.725 89.949L223.349 89.0743ZM232.094 85.8676L228.013 88.1998C228.888 88.4913 230.054 88.1998 231.511 87.6168C232.094 87.0337 232.386 86.4507 232.094 85.8676ZM234.427 82.6609L238.216 80.3288C237.342 80.0373 236.176 80.3288 235.301 80.9118C234.135 81.7864 234.135 82.0779 234.427 82.6609Z" fill="white"/>
<path d="M209.064 76.8308V82.6612C209.064 84.4103 209.939 86.1594 211.105 87.6171V76.8308H209.064Z" fill="#EAAD00"/>
<path d="M212.272 76.8306V89.3659C213.146 90.2405 214.021 90.8236 215.187 91.6981V78.2882H216.645V92.5726C217.811 93.1557 218.685 93.4472 219.851 94.0302V80.3288H221.309V94.3218C222.475 94.6133 223.933 94.9048 225.099 95.1963V82.661H226.556V95.1963C227.722 95.4878 229.18 95.4878 230.346 95.4878V82.661H231.804V95.7794C233.261 95.7794 234.427 95.7794 235.885 95.4878V82.661H237.343V95.1963C238.509 94.9048 239.966 94.9048 241.132 94.6133V80.3288H242.59V94.3218C243.756 94.0303 244.922 93.4472 245.797 93.1557V78.2882H247.254V92.2811C248.42 91.6981 249.295 91.115 250.169 90.532V77.1221H212.272V76.8306Z" fill="#EAAD00"/>
<path d="M252.793 76.8306V89.0744C254.833 87.0337 255.999 84.9931 255.999 82.661V76.8306H252.793Z" fill="#EAAD00"/>
<path d="M210.814 76.8306V87.6168C211.106 88.1998 211.689 88.7829 212.272 89.3659V76.8306H210.814Z" fill="#FDCA01"/>
<path d="M215.478 77.9963V91.4063C216.061 91.6978 216.352 91.9893 216.935 92.2808V77.9963H215.478Z" fill="#FDCA01"/>
<path d="M220.143 80.3301V94.0315C220.726 94.323 221.017 94.3231 221.6 94.6146V80.6216H220.143V80.3301Z" fill="#FDCA01"/>
<path d="M225.681 82.6609V95.1962C226.264 95.1962 226.556 95.4878 227.139 95.4878V82.9524H225.681V82.6609Z" fill="#FDCA01"/>
<path d="M231.221 82.6607V95.4876C231.804 95.4876 232.095 95.4876 232.678 95.4876V82.3691H231.221V82.6607Z" fill="#FDCA01"/>
<path d="M251.335 76.8306V90.2405C251.918 89.949 252.501 89.3659 252.793 89.0744V76.8306H251.335Z" fill="#FDCA01"/>
<path d="M246.67 77.9963V92.8639C247.254 92.5724 247.837 92.2808 248.128 92.2808V78.2879H246.67V77.9963Z" fill="#FDCA01"/>
<path d="M242.006 80.3301V94.6146C242.59 94.6146 242.881 94.3231 243.464 94.3231V80.3301H242.006Z" fill="#FDCA01"/>
<path d="M236.759 82.6609V95.4878C237.342 95.4878 237.634 95.4877 238.217 95.1962V82.6609H236.759Z" fill="#FDCA01"/>
<path d="M232.386 63.4209C219.268 63.4209 208.773 69.2513 208.773 76.5393C208.773 83.8273 219.268 89.6577 232.386 89.6577C245.504 89.6577 255.999 83.8273 255.999 76.5393C255.999 69.5428 245.504 63.4209 232.386 63.4209Z" fill="#FDCA01"/>
<path d="M232.386 66.3359C222.183 66.3359 213.728 71.0003 213.728 76.8307C213.728 82.6611 222.183 87.3254 232.386 87.3254C242.589 87.3254 251.043 82.6611 251.043 76.8307C251.043 71.0003 242.88 66.3359 232.386 66.3359Z" fill="#FFD450"/>
<path d="M223.349 80.912C222.183 80.0375 221.308 79.1629 221.017 78.2884L225.098 75.9562L227.139 77.1223L225.681 77.9968C225.098 78.2883 225.098 78.2883 225.389 78.5799C225.681 78.8714 225.973 79.1629 226.264 79.4544L231.22 76.5392C230.054 75.0816 229.471 73.624 232.386 71.5834C235.01 70.1258 238.216 69.8343 240.84 70.7088L243.172 69.2512L244.63 70.1258L242.298 71.5834C243.172 72.1664 244.047 73.041 244.338 73.9156L240.549 76.2477L238.508 75.0816L239.965 74.2071C240.549 73.9155 240.549 73.9155 240.257 73.624C240.257 73.3325 239.965 73.3325 239.674 73.041L235.01 75.6647C236.176 77.1223 236.759 78.8714 233.552 80.6205C230.637 82.3696 227.43 82.3696 224.806 81.4951L222.183 82.9527L220.725 82.0781L223.349 80.912ZM232.094 77.7053L228.013 80.0375C228.888 80.329 230.054 80.0375 231.511 79.4544C232.094 78.8714 232.386 78.2883 232.094 77.7053ZM234.427 74.4986L238.216 72.1664C237.342 71.8749 236.176 72.1664 235.301 72.7495C234.135 73.3325 234.135 73.9156 234.427 74.4986Z" fill="white"/>
<path d="M209.064 68.3779V74.2083C209.064 75.9575 209.939 77.7066 211.105 79.1642V68.3779H209.064Z" fill="#EAAD00"/>
<path d="M212.272 68.3774V80.9128C213.146 81.7874 214.021 82.3704 215.187 83.245V69.835H216.645V84.1196C217.811 84.7026 218.685 84.9941 219.851 85.5772V71.8757H221.309V85.8687C222.475 86.1602 223.933 86.4517 225.099 86.7432V74.2078H226.556V86.7432C227.722 87.0347 229.18 87.0348 230.346 87.0348V74.2078H231.804V87.3263C233.261 87.3263 234.427 87.3263 235.885 87.0348V74.2078H237.343V86.7432C238.509 86.4517 239.966 86.4517 241.132 86.1602V71.8757H242.59V85.8687C243.756 85.5771 244.922 84.9941 245.797 84.7026V69.835H247.254V83.828C248.42 83.245 249.295 82.6619 250.169 82.0789V68.669H212.272V68.3774Z" fill="#EAAD00"/>
<path d="M252.793 68.3774V80.6213C254.833 78.5806 255.999 76.54 255.999 74.2078V68.3774H252.793Z" fill="#EAAD00"/>
<path d="M210.814 68.3774V79.1637C211.106 79.7467 211.689 80.3298 212.272 80.9128V68.3774H210.814Z" fill="#FDCA01"/>
<path d="M215.478 69.5432V82.9531C216.061 83.2446 216.352 83.5362 216.935 83.8277V69.5432H215.478Z" fill="#FDCA01"/>
<path d="M220.143 71.877V85.5784C220.726 85.87 221.017 85.87 221.6 86.1615V72.1685H220.143V71.877Z" fill="#FDCA01"/>
<path d="M225.681 74.2078V86.7431C226.264 86.7431 226.556 87.0347 227.139 87.0347V74.4993H225.681V74.2078Z" fill="#FDCA01"/>
<path d="M231.221 74.208V87.0349C231.804 87.0349 232.095 87.0349 232.678 87.0349V73.9165H231.221V74.208Z" fill="#FDCA01"/>
<path d="M251.335 68.3774V81.7874C251.918 81.4959 252.501 80.9128 252.793 80.6213V68.3774H251.335Z" fill="#FDCA01"/>
<path d="M246.67 69.5432V84.4107C247.254 84.1192 247.837 83.8277 248.128 83.8277V69.8347H246.67V69.5432Z" fill="#FDCA01"/>
<path d="M242.006 71.877V86.1615C242.59 86.1615 242.881 85.8699 243.464 85.8699V71.877H242.006Z" fill="#FDCA01"/>
<path d="M236.759 74.2078V87.0347C237.342 87.0347 237.634 87.0347 238.217 86.7431V74.2078H236.759Z" fill="#FDCA01"/>
<path d="M232.386 54.967C219.268 54.967 208.773 60.7974 208.773 68.0855C208.773 75.3735 219.268 81.2039 232.386 81.2039C245.504 81.2039 255.999 75.3735 255.999 68.0855C255.999 61.089 245.504 54.967 232.386 54.967Z" fill="#FDCA01"/>
<path d="M232.386 57.8828C222.183 57.8828 213.728 62.5471 213.728 68.3775C213.728 74.2079 222.183 78.8723 232.386 78.8723C242.589 78.8723 251.043 74.2079 251.043 68.3775C251.043 62.5471 242.88 57.8828 232.386 57.8828Z" fill="#FFD450"/>
<path d="M223.349 72.1672C222.183 71.2926 221.308 70.4181 221.017 69.5435L225.098 67.2113L227.139 68.3774L225.681 69.252C225.098 69.5435 225.098 69.5435 225.389 69.835C225.681 70.1265 225.973 70.418 226.264 70.7096L231.22 67.7944C230.054 66.3368 229.471 64.8792 232.386 62.8385C235.01 61.3809 238.216 61.0894 240.84 61.9639L243.172 60.5063L244.63 61.3809L242.298 62.8385C243.172 63.4216 244.047 64.2961 244.338 65.1707L240.549 67.5028L238.508 66.3368L239.965 65.4622C240.549 65.1707 240.549 65.1707 240.257 64.8792C240.257 64.5876 239.965 64.5876 239.674 64.2961L235.01 66.9198C236.176 68.3774 236.759 70.1265 233.552 71.8756C230.637 73.6247 227.43 73.6248 224.806 72.7502L222.183 74.2078L220.725 73.3332L223.349 72.1672ZM232.094 69.252L228.013 71.5841C228.888 71.8756 230.054 71.5841 231.511 71.0011C232.094 70.4181 232.386 69.835 232.094 69.252ZM234.427 66.0452L238.216 63.7131C237.342 63.4216 236.176 63.7131 235.301 64.2961C234.135 64.8792 234.135 65.4622 234.427 66.0452Z" fill="white"/>
<path d="M164.753 105.402V111.232C164.753 112.981 165.628 114.731 166.794 116.188V105.402H164.753Z" fill="#EAAD00"/>
<path d="M168.209 104.672V117.621C169.113 118.524 170.016 119.126 171.221 120.03V106.178H172.726V120.933C173.931 121.536 174.834 121.837 176.039 122.439V108.286H177.545V122.74C178.749 123.041 180.255 123.342 181.459 123.644V110.695H182.965V123.644C184.169 123.945 185.675 123.945 186.88 123.945V110.695H188.385V124.246C189.891 124.246 191.096 124.246 192.601 123.945V110.695H194.107V123.644C195.311 123.342 196.817 123.342 198.022 123.041V108.286H199.527V122.74C200.732 122.439 201.936 121.837 202.84 121.536V106.178H204.345V120.632C205.55 120.03 206.453 119.428 207.357 118.825V104.973H168.209V104.672Z" fill="#EAAD00"/>
<path d="M208.773 105.402V117.646C210.814 115.605 211.98 113.565 211.98 111.233V105.402H208.773Z" fill="#EAAD00"/>
<path d="M166.794 105.402V116.188C167.085 116.771 167.668 117.354 168.251 117.938V105.402H166.794Z" fill="#FDCA01"/>
<path d="M171.458 106.568V119.978C172.042 120.27 172.333 120.561 172.916 120.853V106.568H171.458Z" fill="#FDCA01"/>
<path d="M176.122 108.901V122.603C176.705 122.894 176.997 122.894 177.58 123.186V109.193H176.122V108.901Z" fill="#FDCA01"/>
<path d="M181.662 111.233V123.769C182.245 123.769 182.536 124.06 183.119 124.06V111.525H181.662V111.233Z" fill="#FDCA01"/>
<path d="M186.909 111.232V124.059C187.492 124.059 187.784 124.059 188.367 124.059V110.941H186.909V111.232Z" fill="#FDCA01"/>
<path d="M207.316 105.402V118.812C207.899 118.521 208.482 117.938 208.773 117.646V105.402H207.316Z" fill="#FDCA01"/>
<path d="M202.651 106.568V121.436C203.234 121.144 203.817 120.853 204.109 120.853V106.86H202.651V106.568Z" fill="#FDCA01"/>
<path d="M197.986 108.901V123.186C198.569 123.186 198.861 122.894 199.444 122.894V108.901H197.986Z" fill="#FDCA01"/>
<path d="M192.448 111.233V124.06C193.031 124.06 193.322 124.06 193.905 123.769V111.233H192.448Z" fill="#FDCA01"/>
<path d="M188.367 91.9907C175.248 91.9907 164.753 97.8211 164.753 105.109C164.753 112.397 175.248 118.228 188.367 118.228C201.485 118.228 211.98 112.397 211.98 105.109C211.98 98.1126 201.485 91.9907 188.367 91.9907Z" fill="#FDCA01"/>
<path d="M188.366 94.9062C178.163 94.9062 169.709 99.5706 169.709 105.401C169.709 111.231 178.163 115.896 188.366 115.896C198.57 115.896 207.024 111.231 207.024 105.401C207.024 99.5706 198.861 94.9062 188.366 94.9062Z" fill="#FFD450"/>
<path d="M179.33 109.482C178.164 108.608 177.289 107.733 176.997 106.859L181.079 104.527L183.119 105.693L181.662 106.567C181.079 106.859 181.079 106.859 181.37 107.15C181.37 107.442 181.953 107.733 182.245 108.025L187.201 105.11C186.035 103.652 185.452 102.194 188.367 100.154C190.99 98.6961 194.197 98.4046 196.821 99.2791L199.153 97.8215L200.611 98.6961L198.278 100.154C199.153 100.737 200.028 101.611 200.319 102.486L196.529 104.818L194.489 103.652L195.946 102.777C196.529 102.486 196.529 102.486 196.238 102.194C196.238 101.903 195.946 101.903 195.655 101.611L190.99 104.235C192.157 105.693 192.74 107.442 189.533 109.191C186.618 110.94 183.411 110.94 180.787 110.065L178.164 111.523L176.706 110.648L179.33 109.482ZM187.784 106.276L183.702 108.608C184.577 108.899 185.743 108.608 187.201 108.025C188.075 107.442 188.367 106.859 187.784 106.276ZM190.407 103.069L194.197 100.737C193.323 100.445 192.157 100.737 191.282 101.32C190.116 101.903 190.116 102.486 190.407 103.069Z" fill="white"/>
<path d="M227.722 111.814V117.644C227.722 119.393 228.596 121.142 229.763 122.6V111.814H227.722Z" fill="#EAAD00"/>
<path d="M231.294 111.617V124.394C232.185 125.285 233.076 125.879 234.265 126.771V113.103H235.751V127.662C236.939 128.256 237.83 128.553 239.019 129.148V115.183H240.505V129.445C241.693 129.742 243.179 130.039 244.367 130.336V117.56H245.853V130.336C247.041 130.633 248.527 130.633 249.716 130.633V117.56H251.201V130.93C252.687 130.93 253.875 130.93 255.361 130.633V117.56H256.847V130.336C258.035 130.039 259.521 130.039 260.709 129.742V115.183H262.195V129.445C263.383 129.148 264.572 128.553 265.463 128.256V113.103H266.949V127.365C268.137 126.771 269.029 126.176 269.92 125.582V111.914H231.294V111.617Z" fill="#EAAD00"/>
<path d="M271.742 111.814V124.058C273.782 122.017 274.948 119.977 274.948 117.645V111.814H271.742Z" fill="#EAAD00"/>
<path d="M229.762 111.814V122.6C230.054 123.183 230.637 123.767 231.22 124.35V111.814H229.762Z" fill="#FDCA01"/>
<path d="M234.135 113.271V126.681C234.718 126.973 235.01 127.264 235.593 127.556V113.271H234.135Z" fill="#FDCA01"/>
<path d="M239.091 115.313V129.014C239.674 129.306 239.965 129.306 240.548 129.597V115.604H239.091V115.313Z" fill="#FDCA01"/>
<path d="M244.63 117.936V130.471C245.213 130.471 245.505 130.763 246.088 130.763V118.227H244.63V117.936Z" fill="#FDCA01"/>
<path d="M249.878 117.936V130.763C250.461 130.763 250.752 130.763 251.335 130.763V117.645H249.878V117.936Z" fill="#FDCA01"/>
<path d="M270.284 111.814V125.224C270.867 124.933 271.45 124.35 271.742 124.058V111.814H270.284Z" fill="#FDCA01"/>
<path d="M265.62 113.271V128.139C266.203 127.848 266.786 127.556 267.077 127.556V113.563H265.62V113.271Z" fill="#FDCA01"/>
<path d="M260.664 115.313V129.597C261.247 129.597 261.538 129.306 262.121 129.306V115.313H260.664Z" fill="#FDCA01"/>
<path d="M255.416 117.936V130.763C255.999 130.763 256.291 130.763 256.874 130.471V117.936H255.416Z" fill="#FDCA01"/>
<path d="M251.335 98.6958C238.217 98.6958 227.722 104.526 227.722 111.814C227.722 119.102 238.217 124.933 251.335 124.933C264.454 124.933 274.948 119.102 274.948 111.814C274.948 104.526 264.162 98.6958 251.335 98.6958Z" fill="#FDCA01"/>
<path d="M251.335 101.319C241.132 101.319 232.677 105.983 232.677 111.814C232.677 117.644 241.132 122.309 251.335 122.309C261.538 122.309 269.992 117.644 269.992 111.814C269.992 105.983 261.538 101.319 251.335 101.319Z" fill="#FFD450"/>
<path d="M242.298 115.895C241.132 115.02 240.258 114.146 239.966 113.271L244.047 110.939L246.088 112.105L244.63 112.979C244.047 113.271 244.047 113.271 244.339 113.563C244.63 113.854 244.922 114.146 245.213 114.437L250.169 111.522C249.003 110.064 248.42 108.607 251.335 106.566C253.959 105.108 257.166 104.817 259.789 105.691L262.122 104.234L263.579 105.108L261.247 106.566C262.122 107.149 262.996 108.024 263.288 108.898L259.498 111.23L257.457 110.064L258.915 109.19C259.498 108.898 259.498 108.898 259.206 108.607C259.206 108.315 258.915 108.315 258.623 108.024L253.959 110.647C255.125 112.105 255.708 113.854 252.501 115.603C249.586 117.352 246.379 117.352 243.756 116.478L241.132 117.935L239.674 117.061L242.298 115.895ZM250.752 112.688L246.671 115.02C247.546 115.312 248.712 115.02 250.169 114.437C251.044 113.854 251.044 113.271 250.752 112.688ZM253.084 109.481L256.874 107.149C256 106.858 254.834 107.149 253.959 107.732C253.084 108.607 252.793 108.898 253.084 109.481Z" fill="white"/>
<path d="M252.134 424.509L204.616 451.912L118.326 402.062L165.844 374.368L252.134 424.509Z" fill="#4DC5AC"/>
<path d="M244.555 424.509L204.325 447.831L125.031 402.062L165.553 378.74L244.555 424.509Z" fill="#61E2C0"/>
<path d="M186.251 401.479C174.881 401.479 165.844 406.726 165.844 413.14C165.844 419.553 174.881 424.801 186.251 424.801C197.62 424.801 206.657 419.553 206.657 413.14C206.948 406.726 197.62 401.479 186.251 401.479Z" fill="#4DC5AC"/>
<path d="M211.904 421.303C206.074 421.303 201.41 423.927 201.41 427.133C201.41 430.34 206.074 432.964 211.904 432.964C217.735 432.964 222.399 430.34 222.399 427.133C222.399 424.218 217.735 421.303 211.904 421.303Z" fill="#4DC5AC"/>
<path d="M211.904 424.218C208.697 424.218 206.365 425.676 206.365 427.425C206.365 429.174 208.989 430.632 211.904 430.632C215.111 430.632 217.443 429.174 217.443 427.425C217.443 425.676 214.819 424.218 211.904 424.218Z" fill="#61E2C0"/>
<path d="M157.973 390.401C152.143 390.401 147.478 393.025 147.478 396.232C147.478 399.438 152.143 402.062 157.973 402.062C163.803 402.062 168.468 399.438 168.468 396.232C168.468 393.025 163.803 390.401 157.973 390.401Z" fill="#4DC5AC"/>
<path d="M157.973 393.317C154.766 393.317 152.434 394.774 152.434 396.523C152.434 398.272 155.058 399.73 157.973 399.73C161.179 399.73 163.512 398.272 163.512 396.523C163.512 394.774 160.888 393.317 157.973 393.317Z" fill="#61E2C0"/>
<path d="M175.756 417.805C174.298 416.931 173.424 416.056 173.132 414.89L177.505 412.266L179.837 413.432L178.088 414.307C177.505 414.598 177.505 414.89 177.505 415.182C177.796 415.473 178.088 415.765 178.379 416.056L183.918 412.849C182.752 411.1 181.878 409.643 185.376 407.602C188.291 405.853 191.789 405.561 194.704 406.727L197.328 405.27L199.077 406.144L196.454 407.602C197.62 408.477 198.494 409.351 198.786 410.226L194.704 412.558L192.372 411.392L193.83 410.517C194.413 410.226 194.413 409.934 194.413 409.643C194.121 409.351 194.121 409.351 193.83 409.06L188.583 411.975C189.749 413.432 190.623 415.473 187.125 417.514C183.918 419.263 180.42 419.554 177.505 418.388L174.59 420.137L172.84 419.263L175.756 417.805ZM185.084 414.307L180.42 416.931C181.586 417.222 182.752 416.931 184.21 416.348C185.376 415.473 185.376 414.89 185.084 414.307ZM187.708 410.809L192.081 408.477C190.915 408.185 190.04 408.477 188.874 409.06C187.708 409.643 187.416 410.226 187.708 410.809Z" fill="white"/>
<path d="M142.814 408.477L130.57 401.481L133.777 399.731L145.729 406.728L142.814 408.477Z" fill="white"/>
<path d="M203.742 443.457L191.789 436.461L194.705 435.003L206.657 441.708L203.742 443.457Z" fill="white"/>
<path d="M175.173 390.694L163.22 383.989L166.135 382.24L178.088 389.236L175.173 390.694Z" fill="white"/>
<path d="M236.392 425.967L224.439 418.971L227.355 417.222L239.307 424.218L236.392 425.967Z" fill="white"/>
<path d="M278.662 425.383L231.144 452.786L144.854 402.936L192.372 375.533L278.662 425.383Z" fill="#4DC5AC"/>
<path d="M271.083 425.383L230.853 448.704L151.56 402.936L192.081 379.614L271.083 425.383Z" fill="#61E2C0"/>
<path d="M212.779 402.644C201.41 402.644 192.373 407.891 192.373 414.305C192.373 420.718 201.41 425.965 212.779 425.965C224.148 425.965 233.185 420.718 233.185 414.305C233.477 407.6 224.148 402.644 212.779 402.644Z" fill="#4DC5AC"/>
<path d="M238.433 422.176C232.602 422.176 227.938 424.8 227.938 428.006C227.938 431.213 232.602 433.837 238.433 433.837C244.263 433.837 248.928 431.213 248.928 428.006C248.928 425.091 244.263 422.176 238.433 422.176Z" fill="#4DC5AC"/>
<path d="M238.432 425.091C235.226 425.091 232.893 426.549 232.893 428.298C232.893 430.047 235.517 431.504 238.432 431.504C241.348 431.504 243.971 430.047 243.971 428.298C243.971 426.549 241.348 425.091 238.432 425.091Z" fill="#61E2C0"/>
<path d="M184.501 391.276C178.671 391.276 174.006 393.899 174.006 397.106C174.006 400.313 178.671 402.936 184.501 402.936C190.331 402.936 194.996 400.313 194.996 397.106C194.996 393.899 190.331 391.276 184.501 391.276Z" fill="#4DC5AC"/>
<path d="M184.501 394.19C181.295 394.19 178.962 395.647 178.962 397.396C178.962 399.146 181.586 400.603 184.501 400.603C187.708 400.603 190.04 399.146 190.04 397.396C190.04 395.356 187.416 394.19 184.501 394.19Z" fill="#61E2C0"/>
<path d="M202.284 418.678C200.826 417.803 199.952 416.929 199.66 415.762L204.033 413.139L206.365 414.305L204.616 415.179C204.033 415.471 204.033 415.762 204.033 416.054C204.324 416.346 204.616 416.637 204.908 416.929L210.446 413.722C209.28 411.973 208.406 410.515 211.904 408.474C214.819 406.725 218.317 406.434 221.233 407.6L223.856 406.142L225.605 407.017L222.982 408.474C224.148 409.349 225.022 410.224 225.314 411.098L221.233 413.43L218.9 412.264L220.358 411.39C220.941 411.098 220.941 410.807 220.941 410.515C220.65 410.224 220.65 410.224 220.358 409.932L215.111 412.847C216.277 414.305 217.151 416.345 213.653 418.386C210.446 420.135 206.948 420.427 204.033 419.261L201.118 421.01L199.369 420.135L202.284 418.678ZM211.612 415.179L206.948 417.803C208.114 418.095 209.28 417.803 210.738 417.22C211.904 416.346 211.904 415.763 211.612 415.179ZM214.236 411.681L218.609 409.349C217.443 409.058 216.568 409.349 215.402 409.932C214.236 410.515 213.945 411.098 214.236 411.681Z" fill="white"/>
<path d="M169.342 409.35L157.099 402.353L160.305 400.604L172.258 407.6L169.342 409.35Z" fill="white"/>
<path d="M230.27 444.333L218.318 437.336L221.233 435.878L233.185 442.583L230.27 444.333Z" fill="white"/>
<path d="M201.701 391.566L189.748 384.861L192.663 383.112L204.616 390.109L201.701 391.566Z" fill="white"/>
<path d="M262.92 426.841L250.968 419.844L253.883 418.095L265.835 425.092L262.92 426.841Z" fill="white"/>
<path d="M580.231 105.217L575.079 102.238L572.639 103.592L578.875 107.383L580.231 105.217Z" fill="#EAAD00"/>
<path d="M560.709 148.281L555.015 145.031L554.201 140.698L562.878 146.114L560.709 148.281Z" fill="#EAAD00"/>
<path d="M555.557 139.071L556.37 137.446L549.321 133.384C549.321 133.113 549.321 132.571 549.321 132.3C549.321 131.488 549.321 130.405 549.321 129.592L554.744 132.842L555.557 131.217L549.592 127.696C549.863 126.613 550.134 125.259 550.405 124.175L556.913 127.967L557.726 126.342L550.676 122.279C550.948 121.196 551.49 120.113 551.761 119.029L558.811 123.092L559.624 121.467L552.303 117.404C552.846 116.321 553.388 115.238 553.93 114.425L560.709 118.488L561.522 116.863L554.744 112.8C555.286 111.987 555.828 111.175 556.37 110.633L562.336 114.154L563.149 112.529L557.455 109.279C557.997 108.467 558.54 107.925 559.353 107.112L566.403 111.175L567.216 109.55L560.709 105.758C561.522 105.216 562.336 104.404 562.878 103.862L570.741 108.467L571.554 106.842L564.505 102.779C565.589 102.237 566.674 101.696 567.758 101.425L575.351 105.758L576.164 104.133L570.47 100.883C575.893 100.883 579.689 106.029 579.689 114.425C579.689 125.8 572.91 138.801 564.234 143.946C558.811 146.926 554.201 146.113 551.49 142.321L557.184 145.571L557.997 143.946L549.863 139.342C549.321 138.259 549.05 136.905 549.05 135.55L555.557 139.071Z" fill="#EAAD00"/>
<path d="M575.622 106.03L568.03 101.696C569.114 101.425 569.928 101.155 570.741 101.155L576.435 104.405L575.622 106.03Z" fill="#FDCA01"/>
<path d="M571.283 108.467L563.42 103.863C563.962 103.592 564.505 103.05 565.047 102.78C565.047 102.78 565.047 102.78 565.318 102.78L572.368 106.842L571.283 108.467Z" fill="#FDCA01"/>
<path d="M566.674 111.175L559.624 107.112C560.166 106.571 560.437 106.3 560.98 105.758L567.487 109.55L566.674 111.175Z" fill="#FDCA01"/>
<path d="M562.878 114.154L556.913 110.633C557.184 110.092 557.726 109.55 557.997 109.279L563.691 112.529L562.878 114.154Z" fill="#FDCA01"/>
<path d="M561.251 118.488L554.473 114.426C554.744 113.884 555.015 113.342 555.286 112.801L562.065 116.863L561.251 118.488Z" fill="#FDCA01"/>
<path d="M559.353 123.092L552.303 119.03C552.574 118.488 552.845 117.946 553.117 117.405L560.438 121.467L559.353 123.092Z" fill="#FDCA01"/>
<path d="M557.184 127.967L550.677 124.175C550.948 123.634 550.948 123.092 551.219 122.28L558.269 126.342L557.184 127.967Z" fill="#FDCA01"/>
<path d="M555.014 132.842L549.591 129.592C549.591 129.051 549.862 128.238 549.862 127.696L555.827 131.217L555.014 132.842Z" fill="#FDCA01"/>
<path d="M555.557 139.071L549.592 135.55C549.592 134.737 549.321 134.196 549.321 133.383L556.371 137.446L555.557 139.071Z" fill="#FDCA01"/>
<path d="M557.726 145.842L552.032 142.592C551.49 141.78 550.948 140.696 550.405 139.613L558.54 144.217L557.726 145.842Z" fill="#FDCA01"/>
<path d="M555.015 135.551C555.015 146.927 561.793 152.073 570.47 147.197C578.875 142.322 585.925 129.051 585.925 117.676C585.925 106.301 579.146 101.155 570.47 106.03C561.793 111.176 555.015 124.176 555.015 135.551Z" fill="#FDCA01"/>
<path d="M557.455 134.196C557.455 143.676 563.149 148.009 570.199 143.947C577.249 139.884 582.943 128.78 582.943 119.571C582.943 110.092 577.249 105.758 570.199 109.821C563.149 113.613 557.455 124.717 557.455 134.196Z" fill="#FFD450"/>
<path d="M571.283 135.009C569.928 135.822 568.843 135.822 568.029 135.822V131.489L569.928 130.134V131.759C569.928 132.301 569.927 132.572 570.199 132.572C570.47 132.572 570.741 132.572 571.283 132.301V126.613C569.385 126.884 567.758 126.614 567.758 123.093C567.758 120.113 569.114 117.405 571.283 115.78V113.072L572.639 112.259V114.967C573.724 114.426 574.808 114.155 575.621 114.426V118.759L573.724 120.113V118.488C573.724 117.947 573.723 117.676 573.452 117.676C573.181 117.676 572.91 117.676 572.639 117.947V123.093C574.266 122.822 576.164 123.093 576.164 126.613C576.164 129.864 574.808 132.572 572.639 134.197V137.176L571.283 137.989V135.009ZM571.283 122.822V118.488C570.741 119.301 570.199 120.113 570.199 121.197C570.47 122.551 570.741 122.822 571.283 122.822ZM572.91 126.343V130.947C573.452 130.134 573.995 129.322 573.995 127.697C573.995 126.884 573.452 126.343 572.91 126.343Z" fill="white"/>
<path d="M334.411 98.9789C334.411 101.297 335.774 104.025 337.547 105.116C339.32 106.07 340.684 105.116 340.684 102.661C340.684 100.206 339.32 97.6152 337.547 96.5243C335.911 95.5697 334.411 96.6606 334.411 98.9789Z" fill="#2A3742"/>
<path d="M333.184 97.7519L335.638 96.3882L339.729 105.252L337.138 106.752L333.184 97.7519Z" fill="#2A3742"/>
<path d="M331.82 100.479C331.82 102.797 333.183 105.525 334.956 106.616C336.729 107.57 338.093 106.616 338.093 104.161C338.093 101.707 336.729 99.1155 334.956 98.0245C333.32 97.0699 331.82 98.1609 331.82 100.479Z" fill="#1B2630"/>
<path d="M333.184 101.434C333.184 102.661 333.865 104.025 334.82 104.434C335.775 104.979 336.456 104.434 336.456 103.207C336.456 101.979 335.775 100.616 334.82 100.07C333.865 99.661 333.184 100.206 333.184 101.434Z" fill="#E0E2E6"/>
<path d="M338.502 95.9791V102.116C338.502 102.116 337.275 102.798 335.775 103.207C334.275 103.616 333.729 102.389 334.275 100.616C334.82 98.2974 336.047 95.4336 336.047 95.4336L338.502 95.9791Z" fill="#9B8790"/>
<path d="M338.502 95.979L341.093 95.2971V100.616L338.502 102.116V95.979Z" fill="#A898A0"/>
<path d="M378.186 106.752C378.186 109.07 379.549 111.798 381.322 112.889C383.095 113.843 384.459 112.889 384.459 110.434C384.459 107.979 383.095 105.388 381.322 104.297C379.686 103.343 378.186 104.434 378.186 106.752Z" fill="#2A3742"/>
<path d="M377.095 105.661L379.549 104.161L383.504 113.025L380.913 114.526L377.095 105.661Z" fill="#2A3742"/>
<path d="M375.731 108.252C375.731 110.571 377.095 113.298 378.867 114.389C380.64 115.344 382.004 114.389 382.004 111.934C382.004 109.48 380.64 106.889 378.867 105.798C377.095 104.843 375.731 105.934 375.731 108.252Z" fill="#1B2630"/>
<path d="M377.095 109.207C377.095 110.434 377.777 111.798 378.731 112.207C379.686 112.752 380.368 112.207 380.368 110.98C380.368 109.752 379.686 108.389 378.731 107.843C377.777 107.434 377.095 107.979 377.095 109.207Z" fill="#E0E2E6"/>
<path d="M382.413 103.616V109.889C382.413 109.889 381.186 110.571 379.686 110.98C378.186 111.389 377.64 110.162 378.186 108.389C378.731 106.071 379.822 103.616 379.822 103.616H382.413Z" fill="#9B8790"/>
<path d="M382.413 104.161L385.004 102.661V108.388L382.413 109.889V104.161Z" fill="#A898A0"/>
<path d="M366.895 89.7264C368.281 89.1367 368.544 86.6361 367.483 84.1411C366.421 81.6461 364.437 80.1015 363.051 80.6912C361.665 81.281 361.402 83.7816 362.463 86.2766C363.525 88.7716 365.509 90.3161 366.895 89.7264Z" fill="#2A3742"/>
<path d="M360.594 82.0698L363.049 80.7061L367.004 89.5702L364.413 91.0702L360.594 82.0698Z" fill="#2A3742"/>
<path d="M359.23 84.7971C359.23 87.1154 360.594 89.8428 362.367 90.9337C364.14 91.8883 365.503 90.9337 365.503 88.4791C365.503 86.0244 364.14 83.4333 362.367 82.3424C360.594 81.3878 359.23 82.4788 359.23 84.7971Z" fill="#1B2630"/>
<path d="M360.594 85.7514C360.594 86.9788 361.276 88.3425 362.231 88.7516C363.185 89.2971 363.867 88.7516 363.867 87.5243C363.867 86.2969 363.185 84.9332 362.231 84.3877C361.276 83.9786 360.594 84.5241 360.594 85.7514Z" fill="#E0E2E6"/>
<path d="M365.913 80.842V86.4332C365.913 86.4332 364.685 87.1151 363.185 87.5242C361.685 87.9333 361.14 86.706 361.685 84.9331C362.231 82.6148 363.867 79.2056 363.867 79.2056L365.913 80.842Z" fill="#9B8790"/>
<path d="M365.912 80.5694L368.503 80.2966V84.9332L365.912 86.4333V80.5694Z" fill="#EADCE1"/>
<path d="M379.549 105.797L377.64 104.433L383.504 101.024C385.822 99.6605 385.822 98.8423 383.231 96.524C380.504 94.2057 364.003 79.2049 363.867 79.0685L366.321 77.9775C366.458 78.1139 383.777 93.7966 386.504 96.1149C389.232 98.4332 388.959 100.479 385.413 102.388L379.549 105.797Z" fill="#E0E2E6"/>
<path d="M384.186 103.207L381.731 102.116L376.958 104.843C374.64 106.207 372.322 106.752 368.367 105.252C364.276 103.752 338.502 94.0697 338.229 93.9333L336.047 95.4334C336.32 95.5698 363.321 105.525 367.412 107.025C371.504 108.525 374.913 108.389 378.322 106.479L384.186 103.207Z" fill="#E0E2E6"/>
<path d="M350.638 19.7481C350.638 19.7481 346.274 14.4296 346.274 11.2931C346.274 8.9748 347.775 9.65666 349.82 11.4295C351.184 12.5204 352.957 14.4296 352.957 14.4296L350.638 19.7481Z" fill="#FF9494"/>
<path d="M345.865 10.4752L346.683 9.92969L353.093 14.2936L352.138 14.839L345.865 10.4752Z" fill="#FF9494"/>
<path d="M349.684 20.2935C349.684 20.2935 345.32 14.9751 345.32 11.8385C345.32 9.52022 346.82 10.2021 348.865 11.9749C350.229 13.0659 352.002 14.975 352.002 14.975L349.684 20.2935Z" fill="#ED3A3A"/>
<path d="M353.093 14.2932L352.139 14.8387L349.684 20.2935L350.638 19.748L353.093 14.2932Z" fill="#D62B2B"/>
<path d="M359.775 22.7488C359.23 21.2487 356.366 18.6577 353.638 16.203C352.956 15.6575 353.093 15.6575 352.547 15.1121C352.411 15.3848 352.138 15.6575 352.002 15.9303C352.547 16.3394 352.411 16.3394 352.956 16.8849C355.411 19.0668 358.411 21.7942 358.82 23.0216C359.366 24.658 363.048 51.114 364.957 64.8874L365.912 64.7511C365.639 63.1146 360.457 24.7944 359.775 22.7488Z" fill="#E0E2E6"/>
<path d="M350.911 18.9299C350.638 19.0663 350.638 19.4754 350.366 19.7482L354.32 25.3394L355.275 33.2489L356.23 33.1125L355.139 25.0666L350.911 18.9299Z" fill="#E0E2E6"/>
<path d="M352.684 15.3839C352.684 15.6566 352.548 15.9293 352.275 15.9293C352.138 16.0657 351.866 15.9293 352.002 15.6566C352.002 15.3839 352.138 15.1111 352.411 15.1111C352.548 14.9747 352.684 15.1111 352.684 15.3839Z" fill="#E0E2E6"/>
<path d="M350.911 19.203C350.911 19.4757 350.775 19.7484 350.502 19.7484C350.365 19.8848 350.093 19.7484 350.229 19.4757C350.229 19.2029 350.365 18.9302 350.638 18.9302C350.775 18.7938 351.047 18.9302 350.911 19.203Z" fill="#E0E2E6"/>
<path d="M365.114 64.0624L335.131 81.4058L335.609 82.2321L365.592 64.8887L365.114 64.0624Z" fill="#E0E2E6"/>
<path d="M372.655 68.6266L343.026 85.7651L343.504 86.5914L373.133 69.4529L372.655 68.6266Z" fill="#E0E2E6"/>
<path d="M380.532 73.3927L350.903 90.5312L351.381 91.3575L381.01 74.219L380.532 73.3927Z" fill="#E0E2E6"/>
<path d="M388.323 77.4649L358.459 94.74L358.937 95.5663L388.801 78.2912L388.323 77.4649Z" fill="#E0E2E6"/>
<path d="M394.045 81.3934L364.18 98.6685L364.658 99.4948L394.523 82.2197L394.045 81.3934Z" fill="#E0E2E6"/>
<path d="M371.912 77.0238C370.412 77.0238 369.049 76.7511 367.958 76.0692L327.046 52.6134C325.955 51.9316 325.41 51.1133 325.41 50.0224C325.41 48.795 326.228 47.7041 327.728 46.8858L351.593 33.5215C354.184 32.0214 358.275 31.885 360.594 33.1124L401.505 56.5682C402.596 57.25 403.141 58.0683 403.141 59.1592C403.141 60.3866 402.323 61.4775 400.823 62.2958L376.958 75.6601C375.458 76.6147 373.685 77.0238 371.912 77.0238ZM356.503 33.2488C354.866 33.2488 353.23 33.6579 351.866 34.3397L328.001 47.7041C326.91 48.3859 326.228 49.2042 326.228 50.0224C326.228 50.7042 326.637 51.2497 327.456 51.7952L368.367 75.251C370.412 76.342 374.094 76.2056 376.413 74.8419L400.278 61.4775C401.369 60.7957 402.05 59.9774 402.05 59.1592C402.05 58.4774 401.641 57.9319 400.823 57.3864L359.912 33.9306C359.094 33.5215 357.866 33.2488 356.503 33.2488Z" fill="#E0E2E6"/>
<path d="M370.821 101.708C369.321 101.708 367.958 101.435 366.867 100.753L330.728 79.6157C329.637 78.9338 329.092 78.1156 329.092 77.0246C329.092 75.7973 329.91 74.7063 331.41 73.8881L352.139 61.8875C354.73 60.3874 358.821 60.251 361.139 61.4784L397.141 82.7522C398.777 83.7068 399.732 84.525 399.732 85.4796C399.732 86.1615 399.187 86.8433 398.096 87.3888L375.731 100.344C374.367 101.162 372.594 101.708 370.821 101.708ZM367.276 99.9349C369.321 101.026 373.003 100.89 375.322 99.5258L397.687 86.5706C398.368 86.1615 398.777 85.7524 398.777 85.4796C398.777 84.7978 397.277 83.8432 396.596 83.5704L360.457 62.4329C358.412 61.342 354.73 61.4784 352.411 62.8421L331.683 74.8427C330.456 75.5246 329.91 76.3428 329.91 77.161C329.91 77.8429 330.319 78.3883 331.138 78.9338L367.276 99.9349Z" fill="#E0E2E6"/>
<path d="M370.958 94.07C369.458 94.07 367.957 93.7972 366.866 93.1154L329.774 71.4324C328.683 70.7505 328.001 69.796 328.001 68.8414C328.001 67.614 328.819 66.3867 330.319 65.5685L351.593 53.2951C354.32 51.795 358.411 51.5223 360.866 52.886L398.095 74.5689C399.732 75.5235 400.823 76.3418 400.823 77.4327C400.823 78.1146 400.277 78.7964 399.186 79.4783L376.14 92.7063C374.64 93.6609 372.73 94.07 370.958 94.07ZM367.412 92.2971C369.458 93.5245 373.276 93.2517 375.594 91.888L398.641 78.6601C399.323 78.2509 399.732 77.8418 399.732 77.4327C399.732 76.7509 398.095 75.7963 397.55 75.3872L360.457 53.7042C358.411 52.4769 354.593 52.6132 352.275 54.1133L331.001 66.3867C329.774 67.0685 329.092 68.0231 329.092 68.8414C329.092 69.5232 329.501 70.0687 330.319 70.6142L367.412 92.2971Z" fill="#E0E2E6"/>
<path d="M370.958 86.7065C369.458 86.7065 367.958 86.4338 366.867 85.7519L328.546 63.3871C327.319 62.7052 326.774 61.7507 326.774 60.6597C326.774 59.4323 327.728 58.205 329.228 57.2504L351.184 44.5679C354.048 42.9315 358.275 42.7951 360.73 44.1588L399.05 66.5236C400.687 67.4782 401.778 68.2964 401.778 69.3874C401.778 70.2056 401.232 70.8875 400.141 71.433L376.413 85.2064C374.776 86.2974 372.867 86.7065 370.958 86.7065ZM367.276 84.9337C369.458 86.161 373.276 86.0247 375.731 84.5246L399.459 70.7511C400.277 70.342 400.687 69.9329 400.687 69.5238C400.687 68.8419 399.05 67.8873 398.368 67.4782L360.048 45.1134C357.866 43.8861 354.048 44.0224 351.593 45.5225L329.637 58.205C328.41 58.8869 327.728 59.8415 327.728 60.6597C327.728 61.3415 328.137 62.0234 328.955 62.4325L367.276 84.9337Z" fill="#E0E2E6"/>
<path d="M336.047 95.4332L329.092 77.705L329.91 77.2959L336.592 94.0695L365.094 77.705L356.639 61.2041L355.139 33.1117L356.093 32.9753L357.593 61.0677L366.458 78.1141L336.047 95.4332Z" fill="#E0E2E6"/>
<path d="M373.276 36.5224L368.094 33.5222L365.639 34.7496L371.912 38.8407L373.276 36.5224Z" fill="#EAAD00"/>
<path d="M353.639 79.4784L348.184 76.2055L347.365 71.978L355.957 77.1601L353.639 79.4784Z" fill="#EAAD00"/>
<path d="M348.729 70.2054L349.547 68.7053L342.593 64.7506C342.593 64.4779 342.593 64.0687 342.593 63.6596C342.593 62.705 342.593 61.8868 342.729 60.9322L348.184 64.0687L349.002 62.5687L343.002 59.023C343.138 57.7957 343.411 56.7047 343.684 55.4774L350.229 59.2958L351.048 57.7957L344.093 53.8409C344.365 52.75 344.774 51.659 345.184 50.568L352.275 54.6592L353.093 53.1591L345.865 49.0679C346.275 47.977 346.82 47.0224 347.366 46.0678L354.32 50.0225L355.139 48.5225L348.32 44.5677C348.866 43.7495 349.275 43.0676 349.82 42.2494L355.82 45.795L356.639 44.295L350.911 40.8857C351.457 40.2038 352.138 39.522 352.684 38.8401L359.639 42.9313L360.457 41.4312L353.911 37.6128C354.593 36.9309 355.411 36.3854 356.23 35.84L364.139 40.4766L364.957 38.9765L357.866 34.8854C358.957 34.3399 359.912 33.7944 361.003 33.5217L368.639 37.8855L369.458 36.3855L363.866 33.1125C369.321 33.1125 373.14 38.1583 373.14 46.6133C373.14 57.9321 366.321 71.0237 357.73 75.933C352.411 78.9332 347.775 78.1149 345.047 74.2966L350.775 77.5695L351.593 76.0694L343.547 71.4328C343.138 70.3418 342.865 68.9781 342.593 67.6144L348.729 70.2054Z" fill="#EAAD00"/>
<path d="M368.776 37.3401L361.139 32.9763C362.094 32.7035 363.048 32.5671 363.867 32.5671L369.458 35.84L368.776 37.3401Z" fill="#FDCA01"/>
<path d="M364.276 39.9312L356.366 35.2946C356.912 34.8855 357.321 34.6127 357.866 34.34C357.866 34.34 358.002 34.34 358.002 34.2036L365.094 38.2947L364.276 39.9312Z" fill="#FDCA01"/>
<path d="M359.912 42.5221L352.957 38.431C353.366 38.0218 353.775 37.6127 354.321 37.2036L360.866 41.022L359.912 42.5221Z" fill="#FDCA01"/>
<path d="M355.957 45.3854L349.957 41.8398C350.366 41.2943 350.638 40.8852 351.048 40.4761L356.775 43.8853L355.957 45.3854Z" fill="#FDCA01"/>
<path d="M354.457 49.7502L347.502 45.7955C347.775 45.25 348.048 44.7045 348.457 44.2954L355.275 48.2502L354.457 49.7502Z" fill="#FDCA01"/>
<path d="M352.411 54.5227L345.32 50.4316C345.593 49.8861 345.729 49.3406 346.002 48.7952L353.229 52.8863L352.411 54.5227Z" fill="#FDCA01"/>
<path d="M350.229 59.2958L343.683 55.4774C343.82 54.9319 343.956 54.2501 344.229 53.7046L351.184 57.6593L350.229 59.2958Z" fill="#FDCA01"/>
<path d="M348.184 64.0687L342.729 60.9321C342.729 60.2503 342.865 59.7048 343.002 59.0229L349.002 62.5686L348.184 64.0687Z" fill="#FDCA01"/>
<path d="M348.729 70.2055L342.865 66.7962C342.729 66.1143 342.729 65.4325 342.729 64.6143L349.684 68.569L348.729 70.2055Z" fill="#FDCA01"/>
<path d="M350.911 76.8879L345.184 73.615C344.638 72.7968 344.093 71.8422 343.683 70.7512L351.729 75.3878L350.911 76.8879Z" fill="#FDCA01"/>
<path d="M348.047 66.7959C348.047 78.1147 354.866 83.2968 363.457 78.3875C371.912 73.4781 378.867 60.3865 378.867 49.0677C378.867 37.7489 372.049 32.5669 363.457 37.4762C354.866 42.3856 348.047 55.4772 348.047 66.7959Z" fill="#FDCA01"/>
<path d="M373.508 62.3336C377.755 52.3536 376.647 42.3266 371.034 39.9376C365.42 37.5487 357.426 43.7024 353.179 53.6824C348.932 63.6623 350.04 73.6893 355.654 76.0783C361.267 78.4673 369.261 72.3136 373.508 62.3336Z" fill="#FFD450"/>
<path d="M364.412 66.2506C363.185 66.9325 362.094 67.2052 361.139 67.0689V62.5686L363.048 61.2049V62.9777C363.048 63.5232 363.048 63.6596 363.457 63.6596C363.73 63.6596 364.139 63.5232 364.548 63.2505V57.6593C362.776 57.932 361.139 57.6593 361.139 54.25C361.139 51.2498 362.503 48.5224 364.548 46.886V44.1586L366.049 43.3403V46.0677C367.139 45.5223 368.094 45.3859 369.049 45.5223V49.7498L367.139 50.9771V49.3407C367.139 48.7952 367.139 48.6588 366.73 48.6588C366.458 48.6588 366.321 48.7952 366.049 48.9315V54.1136C367.821 53.9773 369.594 54.1136 369.594 57.6593C369.594 60.9322 368.094 63.6596 366.049 65.296V68.4326L364.548 69.2508V66.2506H364.412ZM364.412 54.25V49.8861C363.73 50.568 363.457 51.5226 363.457 52.6136C363.457 53.7045 363.867 54.1136 364.412 54.25ZM365.912 57.6593V62.2959C366.594 61.614 367.003 60.5231 367.003 59.1594C367.003 58.0684 366.594 57.6593 365.912 57.6593Z" fill="white"/>
<path d="M388.277 44.8405L383.094 41.8403L380.64 43.0677L386.913 47.0224L388.277 44.8405Z" fill="#EAAD00"/>
<path d="M368.639 87.7973L363.184 84.5244L362.366 80.2969L370.958 85.479L368.639 87.7973Z" fill="#EAAD00"/>
<path d="M363.73 78.5238L364.548 77.0237L357.593 73.069C357.593 72.7962 357.593 72.3871 357.593 71.978C357.593 71.0234 357.593 70.2052 357.73 69.2506L363.184 72.3871L364.003 70.887L358.002 67.3414C358.139 66.114 358.411 65.0231 358.684 63.7957L365.23 67.6141L366.048 66.114L359.093 62.1593C359.366 61.0683 359.775 59.9773 360.184 58.8864L367.275 62.9775L368.094 61.4774L360.866 57.3863C361.275 56.2953 361.821 55.3407 362.366 54.3861L369.321 58.3409L370.139 56.8408L363.321 52.8861C363.866 52.0678 364.275 51.386 364.821 50.5678L370.821 54.1134L371.639 52.6133L365.912 49.204C366.457 48.5222 367.139 47.8403 367.685 47.1585L374.639 51.2496L375.458 49.7495L368.912 45.9311C369.594 45.2493 370.412 44.7038 371.23 44.1583L379.14 48.7949L379.958 47.2949L372.867 43.2037C373.958 42.6582 374.912 42.1128 376.003 41.84L383.64 46.2039L384.458 44.7038L378.867 41.4309C384.322 41.4309 388.14 46.4766 388.14 54.9316C388.14 66.2504 381.322 79.342 372.73 84.2514C367.412 87.2515 362.775 86.4333 360.048 82.6149L365.775 85.8878L366.594 84.3877L358.548 79.7511C358.139 78.6602 357.866 77.2965 357.593 75.9327L363.73 78.5238Z" fill="#EAAD00"/>
<path d="M383.777 45.522L376.14 41.1581C377.094 40.8854 378.049 40.749 378.867 40.749L384.458 44.0219L383.777 45.522Z" fill="#FDCA01"/>
<path d="M379.276 48.1131L371.367 43.4765C371.912 43.0674 372.321 42.7946 372.867 42.5219C372.867 42.5219 373.003 42.5219 373.003 42.3855L380.095 46.4766L379.276 48.1131Z" fill="#FDCA01"/>
<path d="M374.912 50.704L367.957 46.6128C368.367 46.2037 368.776 45.7946 369.321 45.3855L375.867 49.2039L374.912 50.704Z" fill="#FDCA01"/>
<path d="M370.957 53.704L364.957 50.1584C365.366 49.6129 365.639 49.2038 366.048 48.7947L371.775 52.2039L370.957 53.704Z" fill="#FDCA01"/>
<path d="M369.458 57.9321L362.503 53.9774C362.775 53.4319 363.048 52.8864 363.457 52.4773L370.276 56.432L369.458 57.9321Z" fill="#FDCA01"/>
<path d="M367.412 62.7046L360.321 58.6135C360.593 58.068 360.73 57.5225 361.002 56.9771L368.23 61.0682L367.412 62.7046Z" fill="#FDCA01"/>
<path d="M365.23 67.6144L358.684 63.796C358.821 63.2505 358.957 62.5687 359.23 62.0232L366.185 65.9779L365.23 67.6144Z" fill="#FDCA01"/>
<path d="M363.185 72.3873L357.73 69.2507C357.73 68.5689 357.866 68.0234 358.002 67.3416L364.003 70.8872L363.185 72.3873Z" fill="#FDCA01"/>
<path d="M363.73 78.5241L357.866 75.1148C357.73 74.4329 357.73 73.7511 357.73 72.9329L364.685 76.8876L363.73 78.5241Z" fill="#FDCA01"/>
<path d="M365.912 85.2058L360.184 81.9329C359.639 81.1147 359.093 80.1601 358.684 79.0691L366.73 83.7057L365.912 85.2058Z" fill="#FDCA01"/>
<path d="M363.048 75.1145C363.048 86.4333 369.867 91.6154 378.458 86.7061C386.913 81.7967 393.868 68.7051 393.868 57.3863C393.868 46.0676 387.049 40.8855 378.458 45.7948C369.867 50.7042 363.048 63.7958 363.048 75.1145Z" fill="#FDCA01"/>
<path d="M365.639 73.6145C365.639 83.0241 371.367 87.388 378.458 83.2968C385.549 79.2057 391.277 68.296 391.277 58.8865C391.277 49.4769 385.549 45.113 378.458 49.2041C371.367 53.2952 365.639 64.2049 365.639 73.6145Z" fill="#FFD450"/>
<path d="M379.413 74.569C378.185 75.2509 377.094 75.5236 376.14 75.3872V70.887L378.049 69.5233V71.2961C378.049 71.8416 378.049 71.9779 378.458 71.9779C378.731 71.9779 379.14 71.8416 379.549 71.5688V65.9776C377.776 66.2504 376.14 65.9776 376.14 62.5684C376.14 59.5682 377.503 56.8408 379.549 55.2043V52.4769L381.049 51.6587V54.3861C382.14 53.8406 383.095 53.7043 384.049 53.8406V58.0681L382.14 59.2955V57.659C382.14 57.1135 382.14 56.9772 381.731 56.9772C381.458 56.9772 381.322 57.1135 381.049 57.2499V62.5684C382.822 62.432 384.595 62.5684 384.595 66.114C384.595 69.3869 383.095 72.1143 381.049 73.7508V76.8873L379.549 77.7055V74.569H379.413ZM379.413 62.432V58.2045C378.731 58.8863 378.458 59.8409 378.458 60.9319C378.458 62.0229 378.867 62.432 379.413 62.432ZM380.913 65.9776V70.6142C381.595 69.9324 382.004 68.8414 382.004 67.4777C382.004 66.3867 381.595 65.9776 380.913 65.9776Z" fill="white"/>
<path d="M401.096 57.5235C401.777 57.9326 402.05 58.4781 402.05 59.0236C402.05 59.8418 401.368 60.66 400.277 61.3419L376.412 74.7062C374.094 76.0699 370.412 76.2063 368.367 75.1153L327.455 51.6595C326.637 51.3868 326.228 50.7049 326.228 50.1595C326.228 49.3412 326.91 48.523 328.001 47.8412L332.365 45.3865C332.365 45.2501 332.365 45.2501 332.365 45.1137C332.365 44.841 332.228 44.5683 332.228 44.4319L327.592 46.8866C326.092 47.7048 325.273 48.9321 325.273 50.0231C325.273 50.9777 325.819 51.9323 326.91 52.6141L367.821 76.0699C368.912 76.6154 370.276 77.0245 371.776 77.0245C373.549 77.0245 375.321 76.6154 376.822 75.7972L400.686 62.4328C402.187 61.6146 403.005 60.3873 403.005 59.2963C403.005 58.6145 402.732 57.9326 402.187 57.3871C401.914 57.3871 401.505 57.5235 401.096 57.5235Z" fill="#E0E2E6"/>
<path d="M398.095 74.5693L397.414 74.1602C397.141 74.433 396.868 74.5693 396.595 74.8421L397.55 75.3876C398.095 75.7967 399.732 76.6149 399.732 77.4331C399.732 77.8422 399.323 78.115 398.641 78.6605L375.594 91.8884C373.14 93.2521 369.458 93.3885 367.412 92.2976L330.183 70.6146C329.365 70.2055 328.955 69.5236 328.955 68.8418C328.955 68.0235 329.637 67.0689 330.865 66.3871L332.228 65.5689C332.092 65.2961 331.956 65.0234 331.819 64.6143L330.319 65.5689C328.819 66.3871 328.001 67.6144 328.001 68.8418C328.001 69.9327 328.683 70.7509 329.774 71.4328L366.866 93.1158C367.957 93.7976 369.321 94.0704 370.958 94.0704C372.73 94.0704 374.64 93.6613 376.14 92.843L399.186 79.6151C400.277 78.9332 400.823 78.3877 400.823 77.5695C400.686 76.4785 399.595 75.5239 398.095 74.5693Z" fill="#E0E2E6"/>
<path d="M371.094 76.479H370.14V101.435H371.094V76.479Z" fill="#E0E2E6"/>
<path d="M402.154 59.1352L398.793 85.7881L399.74 85.9075L403.101 59.2547L402.154 59.1352Z" fill="#E0E2E6"/>
<path d="M326.28 50.2143L325.334 50.3435L329.062 77.637L330.007 77.5078L326.28 50.2143Z" fill="#E0E2E6"/>
<path d="M359.492 22.4546L329.196 39.5254L329.665 40.357L359.96 23.2862L359.492 22.4546Z" fill="#E0E2E6"/>
<path d="M347.366 14.2934L319.273 30.5216C318.864 30.7943 318.046 30.7943 317.637 30.3852C317.091 30.1124 316.819 29.1579 317.228 28.8851L346.411 11.9751C346.82 11.8388 347.775 14.0207 347.366 14.2934Z" fill="#FF514D"/>
<path d="M346.138 12.7932C346.138 13.3387 346.547 14.0206 346.956 14.2933C347.365 14.4297 347.774 14.1569 347.774 13.4751C347.774 12.9296 347.365 12.2478 346.956 11.975C346.411 11.8386 346.002 12.1114 346.138 12.7932Z" fill="#FF514D"/>
<path d="M398.914 66.6598L398.641 66.5234C398.368 66.7962 397.959 66.9325 397.686 67.2053L398.368 67.6144C399.05 68.0235 400.687 68.9781 400.687 69.66C400.687 70.0691 400.277 70.4782 399.459 70.8873L375.731 84.6608C373.276 86.0245 369.321 86.2972 367.276 85.0699L329.092 62.4323C328.274 61.8868 327.865 61.3413 327.865 60.6595C327.865 59.8413 328.546 58.8867 329.774 58.2048L330.865 57.523C330.728 57.2502 330.592 56.9775 330.456 56.5684L329.228 57.2502C327.728 58.2048 326.774 59.4321 326.774 60.6595C326.774 61.7505 327.455 62.705 328.546 63.3869L366.867 85.7517C367.958 86.4336 369.458 86.7063 370.958 86.7063C372.867 86.7063 374.776 86.2972 376.276 85.3426L400.005 71.5692C401.096 70.8873 401.641 70.2054 401.641 69.5236C401.778 68.4326 400.55 67.6144 398.914 66.6598Z" fill="#E0E2E6"/>
<path d="M320.773 36.795C320.773 36.795 316.409 31.4765 316.409 28.34C316.409 26.0217 317.91 26.7035 319.955 28.4764C321.319 29.5673 323.092 31.4765 323.092 31.4765L320.773 36.795Z" fill="#FF9494"/>
<path d="M315.864 27.522L316.682 26.9766L323.092 31.3404L322.137 31.8859L315.864 27.522Z" fill="#FF9494"/>
<path d="M319.819 37.3404C319.819 37.3404 315.455 32.0219 315.455 28.8854C315.455 26.5671 316.955 27.2489 319 29.0218C320.364 30.1127 322.137 32.0219 322.137 32.0219L319.819 37.3404Z" fill="#FF514D"/>
<path d="M323.091 31.3403L322.137 31.8858L319.819 37.3407L320.773 36.7952L323.091 31.3403Z" fill="#ED3A3A"/>
<path d="M329.91 39.7955C329.365 38.2954 326.501 35.7043 323.774 33.2497C323.092 32.7042 323.228 32.7042 322.683 32.1587C322.546 32.4314 322.273 32.7042 322.137 32.9769C322.683 33.386 322.546 33.386 323.092 33.9315C325.546 36.1134 328.547 38.8409 328.956 40.0682C329.501 41.7047 333.183 68.1606 335.092 81.9341L336.047 81.7977C335.774 80.1612 330.456 41.841 329.91 39.7955Z" fill="#E0E2E6"/>
<path d="M320.91 35.9766C320.637 36.1129 320.637 36.522 320.364 36.7948L324.319 42.386L325.274 50.2955L326.228 50.1591L325.137 42.1133L320.91 35.9766Z" fill="#E0E2E6"/>
<path d="M322.682 32.4307C322.682 32.7035 322.546 32.9762 322.273 32.9762C322.137 33.1126 321.864 32.9762 322 32.7035C322 32.4307 322.137 32.158 322.41 32.158C322.546 32.0216 322.682 32.158 322.682 32.4307Z" fill="#E0E2E6"/>
<path d="M321.046 36.2498C321.046 36.5226 320.91 36.7953 320.637 36.7953C320.501 36.9317 320.228 36.7953 320.364 36.5226C320.364 36.2498 320.501 35.9771 320.773 35.9771C320.91 35.8407 321.046 35.9771 321.046 36.2498Z" fill="#E0E2E6"/>
<path d="M366.458 74.1597C366.458 74.1597 366.321 77.8417 367.958 78.9326C369.594 80.0236 372.458 80.7055 374.64 78.7963C376.549 77.2962 375.731 75.2506 375.731 75.2506C375.731 75.2506 372.867 76.3416 370.685 75.7961C368.367 75.2506 366.458 74.1597 366.458 74.1597Z" fill="#FF514D"/>
<path d="M401.368 56.5684C401.096 56.5684 400.55 57.2502 400.55 57.2502C400.55 57.2502 401.096 57.3866 401.778 58.2048C402.323 58.8867 402.323 59.8413 401.778 60.3867C401.368 60.9322 400.823 61.3413 400.823 61.3413C400.823 61.3413 401.096 62.1596 401.232 62.9778C401.368 63.9324 402.732 62.705 402.732 62.705C402.732 62.705 403.278 60.3867 403.005 59.023C402.868 57.3866 401.368 56.5684 401.368 56.5684Z" fill="#FF514D"/>
</svg>
