<svg width="24" height="24" viewBox="0 0 24 24" fill="none" xmlns="http://www.w3.org/2000/svg">
<path d="M19.125 12L23.25 7.875L16.125 0.75L4.875 12" fill="#78B75B"/>
<path d="M8.25 12.0002C8.25 11.0405 8.616 10.0809 9.34838 9.34853C10.8128 7.88415 13.1872 7.88415 14.6516 9.34853C15.384 10.0809 15.75 11.0405 15.75 12.0002" fill="#669E4F"/>
<path d="M14.5601 12.5303C14.5601 12.1298 14.4041 11.7529 14.1206 11.4694C13.5543 10.9028 12.5658 10.9028 12 11.4694L10.9391 10.4085C11.232 10.1164 11.7071 10.1168 12 10.4089L12.5298 9.87827C11.9456 9.29402 10.9938 9.29364 10.4088 9.87827L10.1437 9.61314L9.61308 10.1438L9.87858 10.4093C9.59508 10.6924 9.43945 11.0689 9.43945 11.4698C9.43908 11.8703 9.59545 12.2471 9.87895 12.5306C10.1621 12.8138 10.539 12.9698 10.9395 12.9698C11.34 12.9698 11.7165 12.8138 11.9996 12.5306L13.0605 13.5915C12.7676 13.8836 12.2925 13.8833 11.9996 13.5911L11.4697 14.1218C11.7618 14.4139 12.1462 14.5601 12.5302 14.5601C12.9142 14.5601 13.2982 14.4139 13.5907 14.1218L13.8558 14.3869L14.3865 13.8563L14.121 13.5908C14.4041 13.3073 14.5601 12.9308 14.5601 12.5303ZM11.469 12C11.1862 12.2831 10.6916 12.2831 10.4088 12C10.2671 11.8583 10.1887 11.67 10.1891 11.4698C10.1891 11.2695 10.2671 11.0813 10.4085 10.9395L11.469 12ZM12.5302 11.9996C12.813 11.7165 13.3076 11.7165 13.5903 11.9996C13.7321 12.1414 13.8101 12.3296 13.8101 12.5299C13.8101 12.7301 13.7321 12.9184 13.5907 13.0601L12.5302 11.9996Z" fill="#78B75B"/>
<path d="M18.0833 11.2201L17.5527 10.6895L20.4694 7.77271L16.2267 3.53033L13.3099 6.44708L12.7793 5.91646L15.9612 2.73458C16.1078 2.58833 16.3452 2.58796 16.4918 2.73458L21.2652 7.50758C21.3357 7.57808 21.3747 7.67333 21.3747 7.77271C21.3747 7.87246 21.3357 7.96771 21.2652 8.03821L18.0833 11.2201Z" fill="#669E4F"/>
<path d="M16.501 9.62305L17.0312 9.09205L17.5622 9.6223L17.032 10.1533L16.501 9.62305Z" fill="#96CC7F"/>
<path d="M17.5505 8.57251L18.0809 8.04218L18.6115 8.57278L18.0811 9.10311L17.5505 8.57251Z" fill="#96CC7F"/>
<path d="M13.8491 6.97705L14.3801 6.4468L14.9101 6.97753L14.3791 7.50779L13.8491 6.97705Z" fill="#96CC7F"/>
<path d="M14.8997 5.92017L15.43 5.38984L15.9606 5.92043L15.4303 6.45076L14.8997 5.92017Z" fill="#96CC7F"/>
<path d="M0.75 12H23.25V21.75H0.75V12Z" fill="#96CC7F"/>
<path d="M12 20.625C14.0711 20.625 15.75 18.9461 15.75 16.875C15.75 14.8039 14.0711 13.125 12 13.125C9.92893 13.125 8.25 14.8039 8.25 16.875C8.25 18.9461 9.92893 20.625 12 20.625Z" fill="#78B75B"/>
<path d="M6.375 21.75L7.875 23.25L9.375 21.75" fill="#78B75B"/>
<path d="M12.3751 16.5H12.3744V15H12.3751C12.7884 15 13.1244 15.3364 13.1244 15.75H13.8744C13.8744 14.9228 13.2016 14.25 12.3751 14.25H12.3744V13.875H11.6248V14.25C10.7975 14.25 10.1248 14.9228 10.1248 15.75C10.1248 16.5769 10.7975 17.2496 11.6248 17.2496V18.7496C11.2108 18.7496 10.8748 18.4133 10.8748 17.9996L10.1248 18C10.1248 18.8269 10.7975 19.4996 11.6248 19.4996V19.8746H12.3744V19.4996H12.3751C13.2016 19.4996 13.8744 18.8269 13.8744 17.9996C13.8744 17.1724 13.2016 16.5 12.3751 16.5ZM10.8748 15.75C10.8748 15.3364 11.2108 15 11.6248 15V16.5C11.2111 16.5 10.8748 16.1633 10.8748 15.75ZM12.3751 18.7496H12.3744V17.2496H12.3751C12.7884 17.2496 13.1244 17.586 13.1244 18C13.1244 18.4133 12.7884 18.7496 12.3751 18.7496Z" fill="#669E4F"/>
<path d="M21.7494 20.6246H17.2498V19.8746H21.3744V13.875H17.2498V13.125H21.7494C21.9568 13.125 22.1244 13.2926 22.1244 13.5V20.25C22.1244 20.457 21.9568 20.6246 21.7494 20.6246Z" fill="#669E4F"/>
<path d="M6.74963 20.625H2.25C2.04263 20.625 1.875 20.457 1.875 20.25V13.5C1.875 13.2926 2.04263 13.125 2.24963 13.125H6.74963L6.75 13.875H2.625V19.875H6.74963V20.625Z" fill="#669E4F"/>
<path d="M17.2498 18.375H17.9994V19.125H17.2498V18.375Z" fill="#78B75B"/>
<path d="M18.7498 18.375H19.4994V19.125H18.7498V18.375Z" fill="#78B75B"/>
<path d="M17.2498 14.625H17.9994V15.375H17.2498V14.625Z" fill="#78B75B"/>
<path d="M18.7498 14.625H19.4994V15.375H18.7498V14.625Z" fill="#78B75B"/>
<path d="M4.5 14.625H5.24962V15.375H4.5V14.625Z" fill="#78B75B"/>
<path d="M6 14.625H6.74963V15.375H6V14.625Z" fill="#78B75B"/>
<path d="M4.5 18.375H5.24962V19.125H4.5V18.375Z" fill="#78B75B"/>
<path d="M6 18.375H6.74963V19.125H6V18.375Z" fill="#78B75B"/>
</svg>
