<svg width="24" height="24" viewBox="0 0 24 24" fill="none" xmlns="http://www.w3.org/2000/svg">
<g clip-path="url(#clip0)">
<path d="M23.9952 22.298L22.1097 11.91C22.0909 11.8063 22.0266 11.7165 21.9344 11.6653L17.1887 9.02573C17.1271 8.99141 17.0581 8.97777 16.9902 8.98302L17.8536 20.1209L17.8247 20.1339L23.5043 22.6818C23.5505 22.7025 23.5996 22.7127 23.6485 22.7127C23.7259 22.7127 23.8026 22.6873 23.8656 22.6379C23.9687 22.5575 24.0185 22.4266 23.9952 22.298Z" fill="#44C868"/>
<path d="M12.0004 11.549L7.14675 9.02094C7.08858 8.99062 7.02408 8.97824 6.96057 8.98251C6.97739 8.98148 6.99432 8.98157 7.0111 8.98288L6.14771 20.1208L11.8562 22.6818C11.9023 22.7024 11.9515 22.7126 12.0004 22.7126V11.549Z" fill="#44C868"/>
<path d="M7.01063 8.98278C6.9428 8.97753 6.87376 8.99117 6.81216 9.02544L2.06639 11.665C1.97423 11.7162 1.90992 11.806 1.89112 11.9097L0.00566615 22.2977C-0.0176776 22.4263 0.0321974 22.5572 0.135182 22.6377C0.198323 22.687 0.274964 22.7125 0.352307 22.7125C0.401198 22.7125 0.45037 22.7023 0.496542 22.6816L6.14518 20.1475L7.01063 8.98278Z" fill="#4CE166"/>
<path d="M16.9893 8.98267C16.9427 8.98628 16.8965 8.9987 16.8537 9.02101L12 11.549V22.7127C12 22.7127 12 22.7127 12 22.7127C12.049 22.7127 12.0983 22.7024 12.1443 22.6818L17.8528 20.1208L16.9893 8.98267Z" fill="#4CE166"/>
<path d="M1.3193 15.0579L0.936279 17.1682L6.60788 14.1726L6.73956 12.4739L6.7614 12.1921L1.3193 15.0579Z" fill="#FFDB56"/>
<path d="M6.65935 13.5139L6.6083 14.1726L0.936699 17.1682L0.00566615 22.2979C-0.0176776 22.4264 0.0321974 22.5573 0.135182 22.6378C0.198323 22.6872 0.274964 22.7126 0.352307 22.7126C0.401198 22.7126 0.45037 22.7025 0.496542 22.6817L6.14518 20.1476L6.65935 13.5139Z" fill="#A8EEFC"/>
<path d="M12.0015 12.9413L6.76191 12.1921L6.6084 14.1726L12.0001 22.3607V19.3832L8.78275 14.3171L12.0015 14.7021V12.9413Z" fill="#FFBB24"/>
<path d="M21.5598 11.4572L19.28 10.1892L17.1218 10.6935L17.1488 11.0421L17.2554 12.4171L21.5598 11.4572Z" fill="#FFBB24"/>
<path d="M17.4465 14.8865L17.2422 12.2498L17.1216 10.6936L12.001 12.9414V14.7021L15.3458 13.2475L17.4465 14.8865Z" fill="#FFDB56"/>
<path d="M23.9949 22.2979L23.5213 19.6885L17.2561 12.4172L17.4475 14.8865L23.8727 22.6313C23.9704 22.5503 24.0176 22.4232 23.9949 22.2979Z" fill="#FFBB24"/>
<path d="M12.0232 1.28735C9.30619 1.28735 7.0957 3.49601 7.0957 6.21083C7.0957 7.89018 7.893 9.69318 9.46552 11.5697C10.6205 12.948 11.7597 13.8344 11.8077 13.8715C11.8711 13.9206 11.9472 13.9451 12.0233 13.9451C12.0993 13.9451 12.1754 13.9206 12.2388 13.8715C12.2867 13.8344 13.426 12.948 14.581 11.5697C16.1535 9.69318 16.9508 7.89022 16.9508 6.21083C16.9507 3.49601 14.7402 1.28735 12.0232 1.28735ZM13.8481 6.21078C13.8481 7.21776 13.031 8.03413 12.0232 8.03413C11.0154 8.03413 10.1984 7.2178 10.1984 6.21078C10.1984 5.20377 11.0154 4.38744 12.0232 4.38744C13.031 4.38744 13.8481 5.20381 13.8481 6.21078Z" fill="#FF4A4A"/>
<path d="M12.0225 1.28735C11.8072 1.28735 11.5951 1.30132 11.387 1.32823C13.8049 1.64074 15.6789 3.71117 15.6789 6.21083C15.6789 7.89018 14.8816 9.69318 13.3091 11.5697C12.5664 12.456 11.8307 13.1385 11.387 13.5229C11.6333 13.7363 11.7899 13.8583 11.807 13.8715C11.8705 13.9206 11.9465 13.9451 12.0226 13.9451C12.0986 13.9451 12.1747 13.9206 12.2382 13.8715C12.2861 13.8344 13.4254 12.948 14.5803 11.5697C16.1528 9.69318 16.9501 7.89022 16.9501 6.21083C16.9501 3.49601 14.7396 1.28735 12.0225 1.28735Z" fill="#E7343F"/>
<path d="M12.1443 22.6818L14.267 21.7294L12 19.3833V22.7127C12 22.7127 12 22.7127 12 22.7127C12.049 22.7127 12.0982 22.7025 12.1443 22.6818Z" fill="#FFDB56"/>
<path d="M22.1091 11.9098C22.0903 11.8061 22.026 11.7163 21.9339 11.6651L21.5603 11.4573L17.2559 12.4171L23.521 19.6884L22.1091 11.9098Z" fill="#1EA4E9"/>
<path d="M11.9998 22.7126C11.9998 22.7126 11.9998 22.7126 11.9998 22.7126V22.3607L6.60808 14.1726L6.14697 20.1208L11.8555 22.6818C11.9015 22.7025 11.9507 22.7126 11.9998 22.7126Z" fill="#1EA4E9"/>
</g>
<defs>
<clipPath id="clip0">
<rect width="24" height="24" fill="white"/>
</clipPath>
</defs>
</svg>
