<svg width="24" height="24" viewBox="0 0 24 24" fill="none" xmlns="http://www.w3.org/2000/svg">
<path d="M19.5739 9.20142H16.0002C15.5327 9.20142 15.1538 9.58035 15.1538 10.0478V18.8929C15.1538 19.3604 15.5327 19.7393 16.0002 19.7393H19.5739C20.0414 19.7393 20.4203 19.3604 20.4203 18.8929V10.0478C20.4203 9.58035 20.0414 9.20142 19.5739 9.20142Z" fill="#FFC943"/>
<path d="M17.3518 9.20142H18.7854V19.7393H17.3518V9.20142Z" fill="#43567C"/>
<path d="M5.15459 4.56982H14.5819C14.9996 4.56982 15.4002 4.73576 15.6956 5.03113C15.991 5.3265 16.1569 5.72711 16.1569 6.14483V22.4251C16.1569 22.8428 15.991 23.2434 15.6956 23.5388C15.4002 23.8342 14.9996 24.0001 14.5819 24.0001H5.15459C4.73687 24.0001 4.33627 23.8342 4.0409 23.5388C3.74553 23.2434 3.57959 22.8428 3.57959 22.4251V6.14464C3.57964 5.72696 3.7456 5.3264 4.04096 5.03107C4.33633 4.73574 4.73691 4.56982 5.15459 4.56982Z" fill="#43567C"/>
<path d="M14.0802 7.85034H5.65658C5.4474 7.85034 5.27783 8.01991 5.27783 8.22909V12.1589C5.27783 12.3681 5.4474 12.5377 5.65658 12.5377H14.0802C14.2894 12.5377 14.459 12.3681 14.459 12.1589V8.22909C14.459 8.01991 14.2894 7.85034 14.0802 7.85034Z" fill="#6BB3D9"/>
<path d="M6.65334 13.8577H5.60633C5.42491 13.8577 5.27783 14.0047 5.27783 14.1862V15.2332C5.27783 15.4146 5.42491 15.5617 5.60633 15.5617H6.65334C6.83476 15.5617 6.98184 15.4146 6.98184 15.2332V14.1862C6.98184 14.0047 6.83476 13.8577 6.65334 13.8577Z" fill="#BAC2D3"/>
<path d="M9.14552 13.8577H8.09852C7.91709 13.8577 7.77002 14.0047 7.77002 14.1862V15.2332C7.77002 15.4146 7.91709 15.5617 8.09852 15.5617H9.14552C9.32695 15.5617 9.47402 15.4146 9.47402 15.2332V14.1862C9.47402 14.0047 9.32695 13.8577 9.14552 13.8577Z" fill="#BAC2D3"/>
<path d="M11.638 13.8577H10.591C10.4095 13.8577 10.2625 14.0047 10.2625 14.1862V15.2332C10.2625 15.4146 10.4095 15.5617 10.591 15.5617H11.638C11.8194 15.5617 11.9665 15.4146 11.9665 15.2332V14.1862C11.9665 14.0047 11.8194 13.8577 11.638 13.8577Z" fill="#BAC2D3"/>
<path d="M14.1304 13.8577H13.0834C12.902 13.8577 12.7549 14.0047 12.7549 14.1862V15.2332C12.7549 15.4146 12.902 15.5617 13.0834 15.5617H14.1304C14.3118 15.5617 14.4589 15.4146 14.4589 15.2332V14.1862C14.4589 14.0047 14.3118 13.8577 14.1304 13.8577Z" fill="#BAC2D3"/>
<path d="M6.65334 16.3726H5.60633C5.42491 16.3726 5.27783 16.5196 5.27783 16.7011V17.7481C5.27783 17.9295 5.42491 18.0766 5.60633 18.0766H6.65334C6.83476 18.0766 6.98184 17.9295 6.98184 17.7481V16.7011C6.98184 16.5196 6.83476 16.3726 6.65334 16.3726Z" fill="#BAC2D3"/>
<path d="M9.14552 16.3726H8.09852C7.91709 16.3726 7.77002 16.5196 7.77002 16.7011V17.7481C7.77002 17.9295 7.91709 18.0766 8.09852 18.0766H9.14552C9.32695 18.0766 9.47402 17.9295 9.47402 17.7481V16.7011C9.47402 16.5196 9.32695 16.3726 9.14552 16.3726Z" fill="#BAC2D3"/>
<path d="M11.638 16.3726H10.591C10.4095 16.3726 10.2625 16.5196 10.2625 16.7011V17.7481C10.2625 17.9295 10.4095 18.0766 10.591 18.0766H11.638C11.8194 18.0766 11.9665 17.9295 11.9665 17.7481V16.7011C11.9665 16.5196 11.8194 16.3726 11.638 16.3726Z" fill="#BAC2D3"/>
<path d="M14.1304 16.3726H13.0834C12.902 16.3726 12.7549 16.5196 12.7549 16.7011V17.7481C12.7549 17.9295 12.902 18.0766 13.0834 18.0766H14.1304C14.3118 18.0766 14.4589 17.9295 14.4589 17.7481V16.7011C14.4589 16.5196 14.3118 16.3726 14.1304 16.3726Z" fill="#BAC2D3"/>
<path d="M6.65334 18.887H5.60633C5.42491 18.887 5.27783 19.034 5.27783 19.2155V20.2625C5.27783 20.4439 5.42491 20.591 5.60633 20.591H6.65334C6.83476 20.591 6.98184 20.4439 6.98184 20.2625V19.2155C6.98184 19.034 6.83476 18.887 6.65334 18.887Z" fill="#BAC2D3"/>
<path d="M9.14552 18.887H8.09852C7.91709 18.887 7.77002 19.034 7.77002 19.2155V20.2625C7.77002 20.4439 7.91709 20.591 8.09852 20.591H9.14552C9.32695 20.591 9.47402 20.4439 9.47402 20.2625V19.2155C9.47402 19.034 9.32695 18.887 9.14552 18.887Z" fill="#BAC2D3"/>
<path d="M11.638 18.887H10.591C10.4095 18.887 10.2625 19.034 10.2625 19.2155V20.2625C10.2625 20.4439 10.4095 20.591 10.591 20.591H11.638C11.8194 20.591 11.9665 20.4439 11.9665 20.2625V19.2155C11.9665 19.034 11.8194 18.887 11.638 18.887Z" fill="#BAC2D3"/>
<path d="M14.1304 18.887H13.0834C12.902 18.887 12.7549 19.034 12.7549 19.2155V20.2625C12.7549 20.4439 12.902 20.591 13.0834 20.591H14.1304C14.3118 20.591 14.4589 20.4439 14.4589 20.2625V19.2155C14.4589 19.034 14.3118 18.887 14.1304 18.887Z" fill="#BAC2D3"/>
<path d="M13.4426 5.87451H6.29379C6.18816 5.87451 6.10254 5.96014 6.10254 6.06576V6.43251C6.10254 6.53813 6.18816 6.62375 6.29379 6.62375H13.4426C13.5482 6.62375 13.6339 6.53813 13.6339 6.43251V6.06576C13.6339 5.96014 13.5482 5.87451 13.4426 5.87451Z" fill="#2F3A5A"/>
<path d="M6.61035 0H13.1262V6.24919H6.61035V0Z" fill="#DBE2EB"/>
<path d="M12.1045 1.54737H7.63135C7.58162 1.54737 7.53393 1.52761 7.49877 1.49245C7.4636 1.45728 7.44385 1.40959 7.44385 1.35986C7.44385 1.31014 7.4636 1.26244 7.49877 1.22728C7.53393 1.19212 7.58162 1.17236 7.63135 1.17236H12.1045C12.1543 1.17236 12.202 1.19212 12.2371 1.22728C12.2723 1.26244 12.292 1.31014 12.292 1.35986C12.292 1.40959 12.2723 1.45728 12.2371 1.49245C12.202 1.52761 12.1543 1.54737 12.1045 1.54737Z" fill="#BAC2D3"/>
<path d="M12.1045 3.1521H7.63135C7.58162 3.1521 7.53393 3.13234 7.49877 3.09718C7.4636 3.06202 7.44385 3.01433 7.44385 2.9646C7.44385 2.91487 7.4636 2.86718 7.49877 2.83202C7.53393 2.79685 7.58162 2.7771 7.63135 2.7771H12.1045C12.1543 2.7771 12.202 2.79685 12.2371 2.83202C12.2723 2.86718 12.292 2.91487 12.292 2.9646C12.292 3.01433 12.2723 3.06202 12.2371 3.09718C12.202 3.13234 12.1543 3.1521 12.1045 3.1521Z" fill="#BAC2D3"/>
<path d="M12.1045 4.75732H7.63135C7.58162 4.75732 7.53393 4.73757 7.49877 4.70241C7.4636 4.66724 7.44385 4.61955 7.44385 4.56982C7.44385 4.5201 7.4636 4.4724 7.49877 4.43724C7.53393 4.40208 7.58162 4.38232 7.63135 4.38232H12.1045C12.1543 4.38232 12.202 4.40208 12.2371 4.43724C12.2723 4.4724 12.292 4.5201 12.292 4.56982C12.292 4.61955 12.2723 4.66724 12.2371 4.70241C12.202 4.73757 12.1543 4.75732 12.1045 4.75732Z" fill="#BAC2D3"/>
<path d="M6.78403 21.5195H5.47565C5.3664 21.5195 5.27783 21.6081 5.27783 21.7173V22.2549C5.27783 22.3642 5.3664 22.4527 5.47565 22.4527H6.78403C6.89328 22.4527 6.98184 22.3642 6.98184 22.2549V21.7173C6.98184 21.6081 6.89328 21.5195 6.78403 21.5195Z" fill="#EF5361"/>
<path d="M9.27621 21.5195H7.96783C7.85858 21.5195 7.77002 21.6081 7.77002 21.7173V22.2549C7.77002 22.3642 7.85858 22.4527 7.96783 22.4527H9.27621C9.38546 22.4527 9.47402 22.3642 9.47402 22.2549V21.7173C9.47402 21.6081 9.38546 21.5195 9.27621 21.5195Z" fill="#8CCFB5"/>
<path d="M11.7686 21.5195H10.4603C10.351 21.5195 10.2625 21.6081 10.2625 21.7173V22.2549C10.2625 22.3642 10.351 22.4527 10.4603 22.4527H11.7686C11.8779 22.4527 11.9665 22.3642 11.9665 22.2549V21.7173C11.9665 21.6081 11.8779 21.5195 11.7686 21.5195Z" fill="#6BB3D9"/>
<path d="M14.2608 21.5195H12.9525C12.8432 21.5195 12.7546 21.6081 12.7546 21.7173V22.2549C12.7546 22.3642 12.8432 22.4527 12.9525 22.4527H14.2608C14.3701 22.4527 14.4586 22.3642 14.4586 22.2549V21.7173C14.4586 21.6081 14.3701 21.5195 14.2608 21.5195Z" fill="#FFC943"/>
</svg>
