<svg width="381" height="30" viewBox="0 0 381 30" fill="none" xmlns="http://www.w3.org/2000/svg">
<path fill-rule="evenodd" clip-rule="evenodd" d="M12.8664 10.2926C11.2833 8.56913 8.71669 8.56912 7.13364 10.2926L0.895198 17.0846C-0.298399 18.3841 -0.298399 20.3898 0.895198 21.6893L7.52933 28.9121C8.86167 30.3626 11.1383 30.3626 12.4707 28.9121L19.1048 21.6893C20.2984 20.3898 20.2984 18.3841 19.1048 17.0846L12.8664 10.2926Z" fill="#1BD5EA"/>
<path d="M0 4C0 1.79086 1.79086 0 4 0H20V19H0V4Z" fill="#1BD5EA"/>
<path fill-rule="evenodd" clip-rule="evenodd" d="M32.8664 10.2926C31.2833 8.56913 28.7167 8.56912 27.1336 10.2926L20.8952 17.0846C19.7016 18.3841 19.7016 20.3898 20.8952 21.6893L27.5293 28.9121C28.8617 30.3626 31.1383 30.3626 32.4707 28.9121L39.1048 21.6893C40.2984 20.3898 40.2984 18.3841 39.1048 17.0846L32.8664 10.2926Z" fill="#FFC736"/>
<path d="M20 0H40V19H20V0Z" fill="#FFC736"/>
<path fill-rule="evenodd" clip-rule="evenodd" d="M52.8664 10.2926C51.2833 8.56913 48.7167 8.56912 47.1336 10.2926L40.8952 17.0846C39.7016 18.3841 39.7016 20.3898 40.8952 21.6893L47.5293 28.9121C48.8617 30.3626 51.1383 30.3626 52.4707 28.9121L59.1048 21.6893C60.2984 20.3898 60.2984 18.3841 59.1048 17.0846L52.8664 10.2926Z" fill="#1BD5EA"/>
<path d="M40 0H60V19H40V0Z" fill="#1BD5EA"/>
<path fill-rule="evenodd" clip-rule="evenodd" d="M72.8666 10.2926C71.2836 8.56913 68.7169 8.56912 67.1339 10.2926L60.8954 17.0846C59.7018 18.3841 59.7018 20.3898 60.8954 21.6893L67.5296 28.9121C68.8619 30.3626 71.1386 30.3626 72.4709 28.9121L79.105 21.6893C80.2986 20.3898 80.2986 18.3841 79.105 17.0846L72.8666 10.2926Z" fill="#FFC736"/>
<path d="M60.0002 0H80.0002V19H60.0002V0Z" fill="#FFC736"/>
<path fill-rule="evenodd" clip-rule="evenodd" d="M92.8666 10.2926C91.2836 8.56913 88.7169 8.56912 87.1339 10.2926L80.8954 17.0846C79.7018 18.3841 79.7018 20.3898 80.8954 21.6893L87.5296 28.9121C88.8619 30.3626 91.1386 30.3626 92.4709 28.9121L99.105 21.6893C100.299 20.3898 100.299 18.3841 99.105 17.0846L92.8666 10.2926Z" fill="#1BD5EA"/>
<path d="M80.0002 0H100V19H80.0002V0Z" fill="#1BD5EA"/>
<path fill-rule="evenodd" clip-rule="evenodd" d="M112.867 10.2926C111.284 8.56913 108.717 8.56912 107.134 10.2926L100.895 17.0846C99.7018 18.3841 99.7018 20.3898 100.895 21.6893L107.53 28.9121C108.862 30.3626 111.139 30.3626 112.471 28.9121L119.105 21.6893C120.299 20.3898 120.299 18.3841 119.105 17.0846L112.867 10.2926Z" fill="#FFC736"/>
<path d="M100 0H120V19H100V0Z" fill="#FFC736"/>
<path fill-rule="evenodd" clip-rule="evenodd" d="M132.867 10.2926C131.284 8.56913 128.717 8.56912 127.134 10.2926L120.896 17.0846C119.702 18.3841 119.702 20.3898 120.896 21.6893L127.53 28.9121C128.862 30.3626 131.139 30.3626 132.471 28.9121L139.105 21.6893C140.299 20.3898 140.299 18.3841 139.105 17.0846L132.867 10.2926Z" fill="#1BD5EA"/>
<path d="M120 0H140V19H120V0Z" fill="#1BD5EA"/>
<path fill-rule="evenodd" clip-rule="evenodd" d="M152.867 10.2926C151.284 8.56913 148.717 8.56912 147.134 10.2926L140.896 17.0846C139.702 18.3841 139.702 20.3898 140.896 21.6893L147.53 28.9121C148.862 30.3626 151.139 30.3626 152.471 28.9121L159.105 21.6893C160.299 20.3898 160.299 18.3841 159.105 17.0846L152.867 10.2926Z" fill="#FFC736"/>
<path d="M140 0H160V19H140V0Z" fill="#FFC736"/>
<path fill-rule="evenodd" clip-rule="evenodd" d="M172.867 10.2926C171.284 8.56913 168.717 8.56912 167.134 10.2926L160.896 17.0846C159.702 18.3841 159.702 20.3898 160.896 21.6893L167.53 28.9121C168.862 30.3626 171.139 30.3626 172.471 28.9121L179.105 21.6893C180.299 20.3898 180.299 18.3841 179.105 17.0846L172.867 10.2926Z" fill="#1BD5EA"/>
<path d="M160 0H180V19H160V0Z" fill="#1BD5EA"/>
<path fill-rule="evenodd" clip-rule="evenodd" d="M192.867 10.2926C191.284 8.56913 188.717 8.56912 187.134 10.2926L180.896 17.0846C179.702 18.3841 179.702 20.3898 180.896 21.6893L187.53 28.9121C188.862 30.3626 191.139 30.3626 192.471 28.9121L199.105 21.6893C200.299 20.3898 200.299 18.3841 199.105 17.0846L192.867 10.2926Z" fill="#FFC736"/>
<path d="M180 0H200V19H180V0Z" fill="#FFC736"/>
<path fill-rule="evenodd" clip-rule="evenodd" d="M212.867 10.2926C211.284 8.56913 208.717 8.56912 207.134 10.2926L200.896 17.0846C199.702 18.3841 199.702 20.3898 200.896 21.6893L207.53 28.9121C208.862 30.3626 211.139 30.3626 212.471 28.9121L219.105 21.6893C220.299 20.3898 220.299 18.3841 219.105 17.0846L212.867 10.2926Z" fill="#1BD5EA"/>
<path d="M200 0H220V19H200V0Z" fill="#1BD5EA"/>
<path fill-rule="evenodd" clip-rule="evenodd" d="M232.867 10.2926C231.284 8.56913 228.717 8.56912 227.134 10.2926L220.896 17.0846C219.702 18.3841 219.702 20.3898 220.896 21.6893L227.53 28.9121C228.862 30.3626 231.139 30.3626 232.471 28.9121L239.106 21.6893C240.299 20.3898 240.299 18.3841 239.106 17.0846L232.867 10.2926Z" fill="#FFC736"/>
<path d="M220.001 0H240.001V19H220.001V0Z" fill="#FFC736"/>
<path fill-rule="evenodd" clip-rule="evenodd" d="M252.867 10.2926C251.284 8.56913 248.717 8.56912 247.134 10.2926L240.896 17.0846C239.702 18.3841 239.702 20.3898 240.896 21.6893L247.53 28.9121C248.862 30.3626 251.139 30.3626 252.471 28.9121L259.106 21.6893C260.299 20.3898 260.299 18.3841 259.106 17.0846L252.867 10.2926Z" fill="#1BD5EA"/>
<path d="M240.001 0H260.001V19H240.001V0Z" fill="#1BD5EA"/>
<path fill-rule="evenodd" clip-rule="evenodd" d="M272.867 10.2926C271.284 8.56913 268.717 8.56912 267.134 10.2926L260.896 17.0846C259.702 18.3841 259.702 20.3898 260.896 21.6893L267.53 28.9121C268.862 30.3626 271.139 30.3626 272.471 28.9121L279.106 21.6893C280.299 20.3898 280.299 18.3841 279.106 17.0846L272.867 10.2926Z" fill="#FFC736"/>
<path d="M260.001 0H280.001V19H260.001V0Z" fill="#FFC736"/>
<path fill-rule="evenodd" clip-rule="evenodd" d="M292.867 10.2926C291.284 8.56913 288.718 8.56912 287.135 10.2926L280.896 17.0846C279.703 18.3841 279.703 20.3898 280.896 21.6893L287.53 28.9121C288.863 30.3626 291.139 30.3626 292.472 28.9121L299.106 21.6893C300.299 20.3898 300.299 18.3841 299.106 17.0846L292.867 10.2926Z" fill="#1BD5EA"/>
<path d="M280.001 0H300.001V19H280.001V0Z" fill="#1BD5EA"/>
<path fill-rule="evenodd" clip-rule="evenodd" d="M312.867 10.2926C311.284 8.56913 308.718 8.56912 307.135 10.2926L300.896 17.0846C299.703 18.3841 299.703 20.3898 300.896 21.6893L307.53 28.9121C308.863 30.3626 311.139 30.3626 312.472 28.9121L319.106 21.6893C320.299 20.3898 320.299 18.3841 319.106 17.0846L312.867 10.2926Z" fill="#FFC736"/>
<path d="M300.001 0H320.001V19H300.001V0Z" fill="#FFC736"/>
<path fill-rule="evenodd" clip-rule="evenodd" d="M332.867 10.2926C331.284 8.56913 328.718 8.56912 327.135 10.2926L320.896 17.0846C319.703 18.3841 319.703 20.3898 320.896 21.6893L327.53 28.9121C328.863 30.3626 331.139 30.3626 332.472 28.9121L339.106 21.6893C340.299 20.3898 340.299 18.3841 339.106 17.0846L332.867 10.2926Z" fill="#1BD5EA"/>
<path d="M320.001 0H340.001V19H320.001V0Z" fill="#1BD5EA"/>
<path fill-rule="evenodd" clip-rule="evenodd" d="M352.867 10.2926C351.284 8.56913 348.718 8.56912 347.135 10.2926L340.896 17.0846C339.703 18.3841 339.703 20.3898 340.896 21.6893L347.53 28.9121C348.863 30.3626 351.139 30.3626 352.472 28.9121L359.106 21.6893C360.299 20.3898 360.299 18.3841 359.106 17.0846L352.867 10.2926Z" fill="#FFC736"/>
<path d="M340.001 0H360.001V19H340.001V0Z" fill="#FFC736"/>
<path fill-rule="evenodd" clip-rule="evenodd" d="M372.867 10.2926C371.284 8.56913 368.718 8.56912 367.135 10.2926L360.896 17.0846C359.703 18.3841 359.703 20.3898 360.896 21.6893L367.53 28.9121C368.863 30.3626 371.139 30.3626 372.472 28.9121L379.106 21.6893C380.299 20.3898 380.299 18.3841 379.106 17.0846L372.867 10.2926Z" fill="#1BD5EA"/>
<path d="M360.001 0H376.001C378.21 0 380.001 1.79086 380.001 4V19H360.001V0Z" fill="#1BD5EA"/>
</svg>
